M48
METRIC,LZ,000.000
;FILE_FORMAT=3:3
;TYPE=PLATED
;Layer: PTH_Through
;EasyEDA v6.5.46, 2025-06-24 12:35:43
;10
;Gerber Generator version 0.2
;Holesize 1 = 0.701 mm
T01C0.701
;Holesize 2 = 0.751 mm
T02C0.751
;Holesize 3 = 1.000 mm
T03C1.000
;Holesize 4 = 1.101 mm
T04C1.101
;Holesize 5 = 1.200 mm
T05C1.200
;Holesize 6 = 1.501 mm
T06C1.501
;Holesize 7 = 2.501 mm
T07C2.501
;Holesize 8 = 3.003 mm
T08C3.003
%
G05
G90
T01
X050208Y026924
X039708Y026924
X084244Y026924
X073744Y026924
X073744Y052070
X084244Y052070
T02
X037333Y032011G85X039383Y032011
X050533Y032011G85X052583Y032011
X050533Y038361G85X052583Y038361
X037333Y038361G85X039383Y038361
X050533Y044661G85X052583Y044661
X037333Y044661G85X039383Y044661
X050533Y048761G85X052583Y048761
X037333Y048761G85X039383Y048761
X071369Y032011G85X073419Y032011
X084569Y032011G85X086619Y032011
X084569Y038361G85X086619Y038361
X071369Y038361G85X073419Y038361
X084569Y044661G85X086619Y044661
X071369Y044661G85X073419Y044661
X084569Y048761G85X086619Y048761
X071369Y048761G85X073419Y048761
T03
X040608Y029464
X049308Y029464
X074644Y029464
X083344Y029464
X056388Y074613
X058928Y074613
X066421Y074613
X068961Y074613
X076454Y074613
X078994Y074613
T04
X025400Y062103
X027940Y062103
X027940Y069723
X025400Y069723
T05
X045974Y007550G85X045974Y009750
X045974Y015650G85X045974Y017850
T06
X057611Y013566
X062611Y013566
X067611Y013566
X018890Y044102
X018890Y039102
X018890Y034102
T07
X011430Y072283G85X011430Y074783
X011557Y004084G85X011557Y006584
X087503Y004084G85X087503Y006584
X087503Y072283G85X087503Y074783
T08
X028639Y011110
X033338Y008113
X033338Y014031
M30
