M48
METRIC,LZ,000.000
;FILE_FORMAT=3:3
;TYPE=PLATED
;Layer: PTH_Through
;EasyEDA v6.5.46, 2025-07-02 10:59:38
;10
;Gerber Generator version 0.2
;Holesize 1 = 0.701 mm
T01C0.701
;Holesize 2 = 0.751 mm
T02C0.751
;Holesize 3 = 1.000 mm
T03C1.000
;Holesize 4 = 1.101 mm
T04C1.101
;Holesize 5 = 1.200 mm
T05C1.200
;Holesize 6 = 1.501 mm
T06C1.501
;Holesize 7 = 2.501 mm
T07C2.501
;Holesize 8 = 3.003 mm
T08C3.003
%
G05
G90
T01
X005377Y-001270
X-005123Y-001270
X032047Y-001270
X021547Y-001270
X021547Y023876
X032047Y023876
T02
X-007498Y003817G85X-005448Y003817
X005702Y003817G85X007752Y003817
X005702Y010167G85X007752Y010167
X-007498Y010167G85X-005448Y010167
X005702Y016467G85X007752Y016467
X-007498Y016467G85X-005448Y016467
X005702Y020567G85X007752Y020567
X-007498Y020567G85X-005448Y020567
X019171Y003817G85X021221Y003817
X032372Y003817G85X034422Y003817
X032372Y010167G85X034422Y010167
X019172Y010167G85X021221Y010167
X032372Y016467G85X034422Y016467
X019171Y016467G85X021221Y016467
X032372Y020567G85X034422Y020567
X019171Y020567G85X021221Y020567
T03
X-004223Y001270
X004477Y001270
X022447Y001270
X031147Y001270
X011557Y046419
X014097Y046419
X021590Y046419
X024130Y046419
X031623Y046419
X034163Y046419
T04
X-019431Y033909
X-016891Y033909
X-016891Y041529
X-019431Y041529
T05
X001143Y-010344G85X001143Y-012544
X001143Y-018444G85X001143Y-020644
T06
X012780Y-014628
X017780Y-014628
X022780Y-014628
X-021082Y015922
X-021082Y010922
X-021082Y005922
T07
X-033401Y044089G85X-033401Y046589
X-033274Y-024110G85X-033274Y-021610
X042672Y-024110G85X042672Y-021610
X042672Y044089G85X042672Y046589
T08
X-007430Y-012992
X-012129Y-009995
X-012129Y-015913
M30
