M48
METRIC,LZ,000.000
;FILE_FORMAT=3:3
;TYPE=PLATED
;Layer: PTH_Through
;EasyEDA v6.5.46, 2025-06-26 21:34:50
;10
;Gerber Generator version 0.2
;Holesize 1 = 0.701 mm
T01C0.701
;Holesize 2 = 0.751 mm
T02C0.751
;Holesize 3 = 1.000 mm
T03C1.000
;Holesize 4 = 1.101 mm
T04C1.101
;Holesize 5 = 1.200 mm
T05C1.200
;Holesize 6 = 1.501 mm
T06C1.501
;Holesize 7 = 2.501 mm
T07C2.501
;Holesize 8 = 3.003 mm
T08C3.003
%
G05
G90
T01
X043985Y026924
X033485Y026924
X070655Y026924
X060155Y026924
X060155Y052070
X070655Y052070
T02
X031110Y032011G85X033160Y032011
X044310Y032011G85X046360Y032011
X044310Y038361G85X046360Y038361
X031110Y038361G85X033160Y038361
X044310Y044661G85X046360Y044661
X031110Y044661G85X033160Y044661
X044310Y048761G85X046360Y048761
X031110Y048761G85X033160Y048761
X057780Y032011G85X059830Y032011
X070980Y032011G85X073030Y032011
X070980Y038361G85X073030Y038361
X057780Y038361G85X059830Y038361
X070980Y044661G85X073030Y044661
X057780Y044661G85X059830Y044661
X070980Y048761G85X073030Y048761
X057780Y048761G85X059830Y048761
T03
X034385Y029464
X043085Y029464
X061055Y029464
X069755Y029464
X050165Y074613
X052705Y074613
X060198Y074613
X062738Y074613
X070231Y074613
X072771Y074613
T04
X019177Y062103
X021717Y062103
X021717Y069723
X019177Y069723
T05
X039751Y007550G85X039751Y009750
X039751Y015650G85X039751Y017850
T06
X051388Y013566
X056388Y013566
X061388Y013566
X017526Y044116
X017526Y039116
X017526Y034116
T07
X005207Y072283G85X005207Y074783
X005334Y004084G85X005334Y006584
X081280Y004084G85X081280Y006584
X081280Y072283G85X081280Y074783
T08
X022416Y011110
X027115Y008113
X027115Y014031
M30
