G04 Layer: TopLayer*
G04 EasyEDA v6.5.46, 2025-06-26 21:34:50*
G04 Gerber Generator version 0.2*
G04 Scale: 100 percent, Rotated: No, Reflected: No *
G04 Dimensions in millimeters *
G04 leading zeros omitted , absolute positions ,4 integer and 5 decimal *
%FSLAX45Y45*%
%MOMM*%

%ADD10C,2.0000*%
%ADD11C,1.8000*%
%ADD12C,1.4000*%
%ADD13O,2.2999954X4.9999899999999995*%
%ADD14C,2.3000*%
%ADD15C,1.6000*%
%ADD16C,1.7000*%
%ADD17C,4.8006*%
%ADD18O,1.9999959999999999X4.1999916*%
%ADD19O,3.7999924X1.5999968*%
%ADD20O,5.999988X2.5999948*%
%ADD21O,2.999994X5.999988*%

%LPD*%
D10*
X5748568Y4876098D02*
G01*
X5880608Y4876037D01*
X1632204Y5295900D02*
G01*
X5018913Y5295900D01*
X1552702Y2884423D02*
G01*
X2511419Y2884423D01*
X3086605Y3201085D02*
G01*
X3213608Y3201162D01*
X1320800Y4406900D02*
G01*
X1324099Y3112907D01*
X1847598Y3506609D02*
G01*
X5245100Y3505200D01*
X1752600Y3411611D02*
G01*
X1847588Y3506607D01*
X1752600Y4411606D02*
G01*
X1568698Y4411606D01*
X5553476Y3336556D02*
G01*
X5486130Y3403889D01*
X2714685Y2968619D02*
G01*
X2848543Y3102477D01*
X1320800Y4406900D02*
G01*
X1320800Y4984495D01*
X5260543Y5195813D02*
G01*
X5461152Y4995204D01*
G75*
G01*
X1847599Y3506610D02*
G03*
X1752603Y3411614I0J-94996D01*
G75*
G01*
X1324105Y4167010D02*
G02*
X1568707Y4411612I244602J0D01*
G75*
G01*
X1552705Y2884310D02*
G02*
X1324105Y3112910I0J228600D01*
G75*
G01*
X5245100Y3505200D02*
G02*
X5489705Y3403882I1J-345923D01*
G75*
G01*
X5880499Y3201096D02*
G02*
X5553474Y3336554I0J462483D01*
G75*
G01*
X1320800Y4984501D02*
G02*
X1632199Y5295900I311399J0D01*
G75*
G01*
X2848729Y3102554D02*
G02*
X3086605Y3201086I237877J-237876D01*
G75*
G01*
X2714686Y2968620D02*
G02*
X2511420Y2884424I-203267J203266D01*
G75*
G01*
X2848544Y3102478D02*
G02*
X2848729Y3102554I186J-188D01*
G75*
G01*
X1568707Y4411612D02*
G02*
X1320800Y4659518I0J247906D01*
G75*
G01*
X5461180Y4995139D02*
G03*
X5748569Y4876099I287388J287388D01*
G75*
G01*
X5260543Y5195814D02*
G03*
X5018913Y5295900I-241630J-241630D01*
G75*
G01*
X5461152Y4995205D02*
G02*
X5461180Y4995139I-63J-66D01*
D11*
G01*
X3438499Y2946374D03*
G01*
X4308500Y2946374D03*
G01*
X6105499Y2946374D03*
G01*
X6975500Y2946374D03*
D12*
G01*
X4398492Y2692400D03*
G01*
X3348507Y2692400D03*
G01*
X7065518Y2692400D03*
G01*
X6015532Y2692400D03*
G01*
X6015507Y5207000D03*
G01*
X7065492Y5207000D03*
D13*
G01*
X5138826Y1356588D03*
G01*
X5638825Y1356588D03*
G01*
X6138824Y1356588D03*
D14*
G01*
X1752600Y4411573D03*
G01*
X1752600Y3911574D03*
G01*
X1752600Y3411575D03*
D15*
G01*
X5016525Y7461275D03*
G01*
X5270525Y7461275D03*
G01*
X6019800Y7461275D03*
G01*
X6273800Y7461275D03*
G01*
X7023100Y7461275D03*
G01*
X7277100Y7461275D03*
D16*
G01*
X1917725Y6210274D03*
G01*
X2171725Y6210274D03*
G01*
X2171725Y6972274D03*
G01*
X1917725Y6972274D03*
D17*
G01*
X2241575Y1110995D03*
G01*
X2711475Y811276D03*
G01*
X2711475Y1403095D03*
D18*
G01*
X3975125Y864971D03*
G01*
X3975125Y1675003D03*
D19*
G01*
X3213506Y3201085D03*
G01*
X4533518Y3201085D03*
G01*
X4533518Y3836085D03*
D20*
G01*
X3213506Y3836085D03*
D19*
G01*
X4533518Y4466081D03*
D20*
G01*
X3213506Y4466081D03*
D19*
G01*
X4533518Y4876088D03*
D20*
G01*
X3213506Y4876088D03*
D19*
G01*
X5880506Y3201085D03*
G01*
X7200518Y3201085D03*
G01*
X7200518Y3836085D03*
G01*
X5880506Y3836085D03*
G01*
X7200518Y4466081D03*
G01*
X5880506Y4466081D03*
G01*
X7200518Y4876088D03*
G01*
X5880506Y4876088D03*
D21*
G01*
X520725Y7353300D03*
G01*
X533425Y533425D03*
G01*
X8128000Y533425D03*
G01*
X8128000Y7353300D03*
M02*
