G04 Layer: BottomSolderMaskLayer*
G04 EasyEDA v6.5.46, 2025-06-26 21:34:50*
G04 Gerber Generator version 0.2*
G04 Scale: 100 percent, Rotated: No, Reflected: No *
G04 Dimensions in millimeters *
G04 leading zeros omitted , absolute positions ,4 integer and 5 decimal *
%FSLAX45Y45*%
%MOMM*%

%ADD10C,1.9016*%
%ADD11C,1.5016*%
%ADD12O,2.4015954X5.10159*%
%ADD13C,2.4016*%
%ADD14C,1.7016*%
%ADD15C,1.8016*%
%ADD16C,4.9022*%
%ADD17O,2.0999958X4.2999914*%
%ADD18O,3.9000175999999995X1.700022*%
%ADD19O,6.100013199999999X2.7000200000000003*%
%ADD20O,3.101594X6.101588*%

%LPD*%
D10*
G01*
X3438499Y2946374D03*
G01*
X4308500Y2946374D03*
G01*
X6105499Y2946374D03*
G01*
X6975500Y2946374D03*
D11*
G01*
X4398492Y2692400D03*
G01*
X3348507Y2692400D03*
G01*
X7065518Y2692400D03*
G01*
X6015532Y2692400D03*
G01*
X6015507Y5207000D03*
G01*
X7065492Y5207000D03*
D12*
G01*
X5138826Y1356588D03*
G01*
X5638825Y1356588D03*
G01*
X6138824Y1356588D03*
D13*
G01*
X1752600Y4411573D03*
G01*
X1752600Y3911574D03*
G01*
X1752600Y3411575D03*
D14*
G01*
X5016525Y7461275D03*
G01*
X5270525Y7461275D03*
G01*
X6019800Y7461275D03*
G01*
X6273800Y7461275D03*
G01*
X7023100Y7461275D03*
G01*
X7277100Y7461275D03*
D15*
G01*
X1917725Y6210274D03*
G01*
X2171725Y6210274D03*
G01*
X2171725Y6972274D03*
G01*
X1917725Y6972274D03*
D16*
G01*
X2241575Y1110995D03*
G01*
X2711475Y811276D03*
G01*
X2711475Y1403095D03*
D17*
G01*
X3975125Y864971D03*
G01*
X3975125Y1675003D03*
D18*
G01*
X3213506Y3201085D03*
G01*
X4533518Y3201085D03*
G01*
X4533518Y3836085D03*
D19*
G01*
X3213506Y3836085D03*
D18*
G01*
X4533518Y4466081D03*
D19*
G01*
X3213506Y4466081D03*
D18*
G01*
X4533518Y4876088D03*
D19*
G01*
X3213506Y4876088D03*
D18*
G01*
X5880506Y3201085D03*
G01*
X7200518Y3201085D03*
G01*
X7200518Y3836085D03*
G01*
X5880506Y3836085D03*
G01*
X7200518Y4466081D03*
G01*
X5880506Y4466081D03*
G01*
X7200518Y4876088D03*
G01*
X5880506Y4876088D03*
D20*
G01*
X520725Y7353300D03*
G01*
X533425Y533425D03*
G01*
X8128000Y533425D03*
G01*
X8128000Y7353300D03*
G36*
X3425825Y4597400D02*
G01*
X3635375Y4597400D01*
X3635375Y4343400D01*
X3425825Y4343400D01*
G37*
G36*
X5022850Y1778000D02*
G01*
X5264150Y1778000D01*
X5264150Y1441450D01*
X5022850Y1441450D01*
G37*
G36*
X5518150Y1778000D02*
G01*
X5759450Y1778000D01*
X5759450Y1441450D01*
X5518150Y1441450D01*
G37*
G36*
X6019800Y1778000D02*
G01*
X6261100Y1778000D01*
X6261100Y1441450D01*
X6019800Y1441450D01*
G37*
G36*
X3425825Y5003800D02*
G01*
X3635375Y5003800D01*
X3635375Y4749800D01*
X3425825Y4749800D01*
G37*
G36*
X3425825Y3962400D02*
G01*
X3635375Y3962400D01*
X3635375Y3708400D01*
X3425825Y3708400D01*
G37*
M02*
