G04 Layer: BottomLayer*
G04 EasyEDA v6.5.46, 2025-07-02 10:59:38*
G04 Gerber Generator version 0.2*
G04 Scale: 100 percent, Rotated: No, Reflected: No *
G04 Dimensions in millimeters *
G04 leading zeros omitted , absolute positions ,4 integer and 5 decimal *
%FSLAX45Y45*%
%MOMM*%

%ADD10C,2.0000*%
%ADD11C,1.0000*%
%ADD12C,1.8000*%
%ADD13C,1.4000*%
%ADD14O,2.2999954X4.9999899999999995*%
%ADD15C,2.3000*%
%ADD16C,1.6000*%
%ADD17C,1.7000*%
%ADD18C,4.8006*%
%ADD19O,1.9999959999999999X4.1999916*%
%ADD20O,3.7999924X1.5999968*%
%ADD21O,5.999988X2.5999948*%
%ADD22O,2.999994X5.999988*%
%ADD23O,0.0187X5.999988*%

%LPD*%
D10*
X-1739900Y3721100D02*
G01*
X-1600200Y3721100D01*
X-1371600Y3479800D02*
G01*
X-1371625Y2590292D01*
X-1943125Y3390900D02*
G01*
X-1943100Y3504084D01*
X4305272Y-165102D02*
G01*
X4305274Y2662681D01*
X-204495Y-825500D02*
G01*
X-1038885Y-825500D01*
X-1212875Y-999489D01*
X-1739925Y-1358900D02*
G01*
X-1739925Y-736600D01*
X-1212875Y-1591310D02*
G01*
X-1507515Y-1591310D01*
X-1498625Y-495300D02*
G01*
X-25Y-495300D01*
X-1865932Y-2476500D02*
G01*
X-407812Y-2476500D01*
X-2107463Y-279400D02*
G01*
X-2489225Y-279400D01*
X-2489225Y3873500D01*
X-1600819Y2221880D02*
G01*
X-1470004Y2352695D01*
X-2005949Y2248550D02*
G01*
X-1788810Y2465689D01*
D11*
X994013Y1266560D02*
G01*
X1158206Y1102367D01*
D10*
X2322921Y1233053D02*
G01*
X2439337Y1116637D01*
X1915591Y1333500D02*
G01*
X2080422Y1333500D01*
X1124404Y1529869D02*
G01*
X1539694Y1114579D01*
X1172664Y1938809D02*
G01*
X1680664Y1430809D01*
X1776008Y1016695D02*
G01*
X2019673Y1016695D01*
X3416300Y3365500D02*
G01*
X3416300Y4641850D01*
D11*
X1498600Y4914900D02*
G01*
X3327400Y4914900D01*
X2246596Y4113491D02*
G01*
X2012368Y3879268D01*
X1845368Y3953563D02*
G01*
X2115629Y4223829D01*
X1193043Y4344162D02*
G01*
X1593019Y3944180D01*
X1593019Y3944180D02*
G01*
X1593578Y3943621D01*
X1845368Y3953563D02*
G01*
X1844537Y3952732D01*
D10*
X376621Y1016688D02*
G01*
X672691Y1016688D01*
X-1943100Y4152874D02*
G01*
X-1689100Y4152874D01*
X447675Y156667D02*
G01*
X447675Y127000D01*
X-422325Y-37028D02*
G01*
X-422325Y127000D01*
X-422325Y156690D02*
G01*
X-422325Y127000D01*
D11*
X2413000Y4641850D02*
G01*
X2410965Y4914900D01*
D10*
X447799Y127000D02*
G01*
X127000Y127000D01*
D11*
X1104900Y-127000D02*
G01*
X537715Y-127000D01*
X1435100Y2705100D02*
G01*
X342900Y2705100D01*
X165100Y2527300D02*
G01*
X165100Y1524000D01*
X3162300Y4641850D02*
G01*
X3162300Y4343400D01*
X2159000Y4641850D02*
G01*
X2159000Y4328530D01*
X2984500Y4165600D02*
G01*
X2372395Y4165600D01*
X1638300Y3835400D02*
G01*
X1638300Y2908300D01*
X1155700Y4641850D02*
G01*
X1155700Y4434304D01*
X1409700Y4641850D02*
G01*
X1409700Y4826000D01*
X3416300Y4826000D02*
G01*
X3416300Y4641850D01*
X3204657Y2191727D02*
G01*
X3204657Y2387584D01*
D10*
X3114667Y156677D02*
G01*
X3114667Y127010D01*
X2244666Y-37030D02*
G01*
X2244666Y127010D01*
X2244666Y156700D02*
G01*
X2244666Y127010D01*
X3114791Y127010D02*
G01*
X3102091Y139710D01*
X2832092Y139710D01*
X3971983Y2980098D02*
G01*
X3797300Y2984500D01*
X-2485925Y1469882D02*
G01*
X-2485925Y1507045D01*
X-2485925Y714486D02*
G01*
X-2485925Y691573D01*
X-1928652Y592188D02*
G01*
X-2108225Y592188D01*
X-2485925Y1469882D02*
G01*
X-2485925Y1486227D01*
X-2108225Y1092083D02*
G01*
X-2485925Y1092342D01*
X-388106Y1333500D02*
G01*
X-1076220Y1334909D01*
D11*
X1968474Y3773423D02*
G01*
X1968474Y2573781D01*
X1790674Y1854200D02*
G01*
X3581374Y1854200D01*
X1676374Y2311400D02*
G01*
X1676374Y1968500D01*
X1803374Y3853434D02*
G01*
X1803374Y2641600D01*
D10*
X672566Y1646681D02*
G01*
X842396Y1646681D01*
X672566Y2056637D02*
G01*
X888974Y2057400D01*
X1776008Y1016695D02*
G01*
X2019782Y1016762D01*
X2679674Y1016000D02*
G01*
X3339566Y1016762D01*
D11*
X3682974Y1752600D02*
G01*
X3682974Y-25400D01*
X3581374Y-127000D02*
G01*
X3204692Y-127000D01*
X1206474Y985840D02*
G01*
X1206474Y-25400D01*
X368274Y1320800D02*
G01*
X863069Y1320800D01*
D10*
X-2209825Y4152900D02*
G01*
X-1943125Y4152900D01*
X-1689125Y3390900D02*
G01*
X-1689125Y2706349D01*
X-2108225Y2001634D02*
G01*
X-2108225Y1592326D01*
X-1698525Y1985995D02*
G01*
X-1698525Y822319D01*
X-1279423Y1131823D02*
G01*
X-1279423Y548718D01*
X-2489225Y-279400D02*
G01*
X-2489225Y-1853206D01*
X-407812Y-2476500D02*
G01*
X-415404Y-2476500D01*
X-25Y-495300D02*
G01*
X-25Y0D01*
X2692374Y0D02*
G01*
X2692374Y-497839D01*
X-25Y-495300D02*
G01*
X3970756Y-498347D01*
G75*
G01*
X-1865932Y-2476500D02*
G02*
X-2489225Y-1853207I0J623293D01*
G75*
G01*
X-2219851Y-279400D02*
G02*
X-2489225Y-10025I0J269375D01*
G75*
G01*
X-2264301Y-279400D02*
G03*
X-2489225Y-504325I0J-224925D01*
G75*
G01*
X-2107542Y-279400D02*
G03*
X-1279423Y548719I0J828119D01*
G75*
G01*
X-1788810Y2465690D02*
G03*
X-1788792Y2465733I-43J43D01*
G75*
G01*
X-1788792Y2465733D02*
G03*
X-1689125Y2706350I-240617J240617D01*
G75*
G01*
X-2005950Y2248550D02*
G03*
X-2108225Y2001634I246916J-246915D01*
G75*
G01*
X-1600820Y2221880D02*
G03*
X-1698526Y1985996I235885J-235884D01*
G75*
G01*
X-1470005Y2352695D02*
G03*
X-1371600Y2590264I-237566J237569D01*
G75*
G01*
X-2489225Y3873500D02*
G02*
X-2209825Y4152900I279400J0D01*
D11*
G75*
G01*
X1158207Y1102368D02*
G02*
X1206475Y985840I-116528J-116528D01*
G75*
G01*
X994014Y1266561D02*
G03*
X863069Y1320800I-130945J-130945D01*
G75*
G01*
X3682975Y-25400D02*
G02*
X3581375Y-127000I-101600J0D01*
D10*
G75*
G01*
X2439337Y1116637D02*
G03*
X2680457Y1016762I241120J241120D01*
G75*
G01*
X2322921Y1233053D02*
G03*
X2080423Y1333500I-242499J-242499D01*
G75*
G01*
X1680665Y1430810D02*
G03*
X1915592Y1333500I234927J234927D01*
G75*
G01*
X1539695Y1114580D02*
G03*
X1776009Y1016696I236313J236314D01*
G75*
G01*
X1124405Y1529870D02*
G03*
X842396Y1646682I-282009J-282009D01*
G75*
G01*
X1172665Y1938810D02*
G03*
X888081Y2056689I-284585J-284584D01*
D11*
G75*
G01*
X1747261Y2496586D02*
G03*
X1676375Y2325451I171135J-171135D01*
G75*
G01*
X1747304Y2496630D02*
G03*
X1803375Y2631996I-135367J135366D01*
G75*
G01*
X3581375Y1854200D02*
G02*
X3682975Y1752600I0J-101600D01*
G75*
G01*
X1790675Y1854200D02*
G02*
X1676375Y1968500I0J114300D01*
G75*
G01*
X1968475Y2573782D02*
G03*
X2154646Y2387610I186171J0D01*
D10*
G75*
G01*
X3971983Y2980098D02*
G02*
X4305249Y2646832I0J-333266D01*
G75*
G01*
X-1279421Y1131710D02*
G02*
X-1076221Y1334910I203200J0D01*
D11*
G75*
G01*
X2411910Y4788400D02*
G03*
X2285411Y4914900I-126499J0D01*
G75*
G01*
X2411910Y4788400D02*
G02*
X2538410Y4914900I126500J0D01*
G75*
G01*
X1409700Y4826000D02*
G02*
X1498600Y4914900I88900J0D01*
G75*
G01*
X3327400Y4914900D02*
G02*
X3416300Y4826000I0J-88900D01*
G75*
G01*
X2246592Y4113492D02*
G02*
X2372393Y4165600I125800J-125801D01*
G75*
G01*
X2159000Y4328531D02*
G02*
X2115632Y4223832I-148067J0D01*
G75*
G01*
X1155700Y4434304D02*
G03*
X1193038Y4344162I127480J0D01*
G75*
G01*
X1593576Y3943624D02*
G02*
X1638300Y3835649I-107978J-107975D01*
G75*
G01*
X2012368Y3879268D02*
G03*
X1968500Y3773360I105908J-105907D01*
G75*
G01*
X1844533Y3952733D02*
G03*
X1803400Y3853429I99304J-99304D01*
G75*
G01*
X3162300Y4343400D02*
G02*
X2984500Y4165600I-177800J0D01*
G75*
G01*
X368300Y1320800D02*
G02*
X165100Y1524000I0J203200D01*
D10*
G75*
G01*
X-4719Y1174643D02*
G03*
X376624Y1016686I381343J381343D01*
G75*
G01*
X-4719Y1174643D02*
G03*
X-388234Y1333500I-383515J-383514D01*
D11*
G75*
G01*
X165100Y2527300D02*
G02*
X342900Y2705100I177800J0D01*
G75*
G01*
X1638300Y2908300D02*
G02*
X1435100Y2705100I-203200J0D01*
G75*
G01*
X1206500Y-25400D02*
G02*
X1104900Y-127000I-101600J0D01*
D10*
G75*
G01*
X0Y0D02*
G02*
X127000Y127000I127000J0D01*
G75*
G01*
X2692392Y10D02*
G02*
X2832092Y139710I139700J0D01*
G75*
G01*
X3797300Y2984500D02*
G02*
X3416300Y3365500I0J381000D01*
G75*
G01*
X-2108223Y1092187D02*
G02*
X-2485921Y1469885I0J377698D01*
G75*
G01*
X-2108223Y1092187D02*
G03*
X-2485921Y714489I0J-377698D01*
G75*
G01*
X-1698521Y822320D02*
G02*
X-1928652Y592188I-230131J0D01*
D11*
G75*
G01*
X3339686Y2056699D02*
G02*
X3204660Y2191725I0J135026D01*
D10*
G75*
G01*
X672694Y381686D02*
G03*
X447675Y156667I0J-225019D01*
G75*
G01*
X3339686Y381696D02*
G03*
X3114667Y156677I0J-225019D01*
G75*
G01*
X-512313Y-127015D02*
G03*
X-422326Y-37028I0J89987D01*
G75*
G01*
X2154690Y-127005D02*
G03*
X2244667Y-37028I0J89977D01*
G75*
G01*
X2019673Y381696D02*
G02*
X2244667Y156703I0J-224993D01*
G75*
G01*
X-647319Y381686D02*
G02*
X-422326Y156693I0J-224993D01*
G75*
G01*
X114280Y-1954408D02*
G02*
X-407812Y-2476500I-522092J0D01*
G75*
G01*
X-1212883Y-999480D02*
G03*
X-1206525Y-984131I-15349J15349D01*
G75*
G01*
X-1739925Y-736600D02*
G02*
X-1498625Y-495300I241300J0D01*
G75*
G01*
X-1507515Y-1591310D02*
G02*
X-1739925Y-1358900I0J232410D01*
G75*
G01*
X-204495Y-825500D02*
G02*
X114280Y-1144275I0J-318775D01*
G75*
G01*
X3970673Y-499702D02*
G03*
X4305272Y-165103I0J334599D01*
G75*
G01*
X-197861Y-495300D02*
G03*
X-25Y-297464I0J197836D01*
G75*
G01*
X-25Y-297464D02*
G03*
X198034Y-495524I198059J0D01*
G75*
G01*
X2499601Y-498018D02*
G03*
X2692375Y-305244I0J192774D01*
G75*
G01*
X2692375Y-305244D02*
G03*
X2885575Y-498445I193200J0D01*
G75*
G01*
X-1212883Y-999480D02*
G02*
X-1038903Y-825500I173980J0D01*
G75*
G01*
X-1607144Y3721100D02*
G02*
X-1371600Y3485556I0J-235544D01*
G75*
G01*
X-1726085Y3721100D02*
G03*
X-1943100Y3504085I0J-217015D01*
G36*
X-469900Y1765300D02*
G01*
X-288925Y1765300D01*
X-288925Y1536700D01*
X-469900Y1536700D01*
G37*
G36*
X-469900Y2171700D02*
G01*
X-288925Y2171700D01*
X-288925Y1943100D01*
X-469900Y1943100D01*
G37*
G36*
X-469900Y1130300D02*
G01*
X-288925Y1130300D01*
X-288925Y901700D01*
X-469900Y901700D01*
G37*
G36*
X1181074Y-1054100D02*
G01*
X1384274Y-1054100D01*
X1384274Y-1358900D01*
X1181074Y-1358900D01*
G37*
G36*
X1676374Y-1054100D02*
G01*
X1879574Y-1054100D01*
X1879574Y-1358900D01*
X1676374Y-1358900D01*
G37*
G36*
X2178024Y-1054100D02*
G01*
X2381224Y-1054100D01*
X2381224Y-1358900D01*
X2178024Y-1358900D01*
G37*
D12*
G01*
X-422325Y126974D03*
G01*
X447675Y126974D03*
G01*
X2244674Y126974D03*
G01*
X3114675Y126974D03*
D13*
G01*
X537667Y-127000D03*
G01*
X-512318Y-127000D03*
G01*
X3204692Y-127000D03*
G01*
X2154707Y-127000D03*
G01*
X2154681Y2387600D03*
G01*
X3204667Y2387600D03*
D14*
G01*
X1278000Y-1462811D03*
G01*
X1778000Y-1462811D03*
G01*
X2277998Y-1462811D03*
D15*
G01*
X-2108225Y1592173D03*
G01*
X-2108225Y1092174D03*
G01*
X-2108225Y592175D03*
D16*
G01*
X1155700Y4641875D03*
G01*
X1409700Y4641875D03*
G01*
X2158974Y4641875D03*
G01*
X2412974Y4641875D03*
G01*
X3162274Y4641875D03*
G01*
X3416274Y4641875D03*
D17*
G01*
X-1943100Y3390874D03*
G01*
X-1689100Y3390874D03*
G01*
X-1689100Y4152874D03*
G01*
X-1943100Y4152874D03*
D18*
G01*
X-742983Y-1299199D03*
G01*
X-1212883Y-999479D03*
G01*
X-1212883Y-1591299D03*
D19*
G01*
X114279Y-1144376D03*
G01*
X114279Y-1954408D03*
D20*
G01*
X-647319Y381685D03*
G01*
X672693Y381685D03*
G01*
X672693Y1016685D03*
D21*
G01*
X-647319Y1016685D03*
D20*
G01*
X672693Y1646681D03*
D21*
G01*
X-647319Y1646681D03*
D20*
G01*
X672693Y2056688D03*
D21*
G01*
X-647319Y2056688D03*
D20*
G01*
X2019680Y381685D03*
G01*
X3339693Y381685D03*
G01*
X3339693Y1016685D03*
G01*
X2019680Y1016685D03*
G01*
X3339693Y1646681D03*
G01*
X2019680Y1646681D03*
G01*
X3339693Y2056688D03*
G01*
X2019680Y2056688D03*
D22*
G01*
X-3340100Y4533900D03*
G01*
X-3327400Y-2285974D03*
G01*
X4267174Y-2285974D03*
G01*
X4267174Y4533900D03*
M02*
