G04 Layer: BottomSilkscreenLayer*
G04 EasyEDA v6.5.46, 2025-07-02 10:59:38*
G04 Gerber Generator version 0.2*
G04 Scale: 100 percent, Rotated: No, Reflected: No *
G04 Dimensions in millimeters *
G04 leading zeros omitted , absolute positions ,4 integer and 5 decimal *
%FSLAX45Y45*%
%MOMM*%

%ADD10C,0.2032*%
%ADD11C,0.1524*%
%ADD12C,0.2540*%
%ADD13C,1.0000*%

%LPD*%
G36*
X2838551Y-467664D02*
G01*
X2839618Y-471119D01*
X2999892Y-1210259D01*
X2999892Y-1211427D01*
X3054858Y-1211427D01*
X3112109Y-960221D01*
X3113176Y-960221D01*
X3170478Y-1211427D01*
X3225393Y-1211427D01*
X3225393Y-1209751D01*
X3288690Y-786485D01*
X3288690Y-784199D01*
X3232353Y-784352D01*
X3232404Y-785622D01*
X3192424Y-1126845D01*
X3191205Y-1128318D01*
X3143046Y-901801D01*
X3082645Y-902360D01*
X3034030Y-1129334D01*
X3033064Y-1129334D01*
X2895041Y-467664D01*
G37*
G36*
X2709164Y-574497D02*
G01*
X2709164Y-1405229D01*
X4509160Y-1405229D01*
X4509160Y-574497D01*
X3028442Y-574497D01*
X3029559Y-647649D01*
X4435957Y-647649D01*
X4435957Y-1331061D01*
X2782671Y-1331061D01*
X2781350Y-952804D01*
X2781350Y-574497D01*
G37*
G36*
X3798468Y-777240D02*
G01*
X3773830Y-780288D01*
X3749090Y-785215D01*
X3734257Y-789279D01*
X3704082Y-799084D01*
X3704082Y-857351D01*
X3705047Y-857351D01*
X3717950Y-849426D01*
X3735222Y-840790D01*
X3757980Y-831850D01*
X3778758Y-826719D01*
X3792626Y-824788D01*
X3813352Y-823468D01*
X3835349Y-825703D01*
X3850944Y-829716D01*
X3865626Y-836625D01*
X3877868Y-845362D01*
X3887571Y-856030D01*
X3894023Y-868121D01*
X3897934Y-883361D01*
X3897884Y-906322D01*
X3894937Y-918819D01*
X3889603Y-929741D01*
X3881831Y-938530D01*
X3870756Y-946099D01*
X3860749Y-951128D01*
X3840987Y-957986D01*
X3775811Y-973937D01*
X3755034Y-981151D01*
X3734765Y-991006D01*
X3720185Y-1000556D01*
X3706012Y-1013917D01*
X3696106Y-1026972D01*
X3687470Y-1044752D01*
X3683406Y-1058621D01*
X3679951Y-1076401D01*
X3679901Y-1110030D01*
X3682390Y-1127404D01*
X3687419Y-1144625D01*
X3694226Y-1160119D01*
X3702405Y-1172362D01*
X3713479Y-1185062D01*
X3730294Y-1197559D01*
X3748125Y-1206296D01*
X3761841Y-1211478D01*
X3776776Y-1215186D01*
X3797554Y-1218844D01*
X3853942Y-1218844D01*
X3871722Y-1216152D01*
X3900424Y-1210310D01*
X3921150Y-1204264D01*
X3948379Y-1194155D01*
X3948379Y-1132281D01*
X3932732Y-1142085D01*
X3900932Y-1157986D01*
X3874668Y-1166723D01*
X3855923Y-1170736D01*
X3835146Y-1173124D01*
X3805478Y-1171905D01*
X3787648Y-1168044D01*
X3773830Y-1162862D01*
X3759962Y-1154734D01*
X3746906Y-1141323D01*
X3738879Y-1125880D01*
X3735679Y-1113993D01*
X3734511Y-1093216D01*
X3736746Y-1077417D01*
X3740962Y-1064564D01*
X3747820Y-1053642D01*
X3754018Y-1047038D01*
X3765448Y-1039215D01*
X3779570Y-1032459D01*
X3800500Y-1025702D01*
X3849979Y-1014374D01*
X3871722Y-1007770D01*
X3893769Y-999083D01*
X3914241Y-986840D01*
X3927551Y-975512D01*
X3938524Y-961694D01*
X3947312Y-943864D01*
X3952544Y-924102D01*
X3953560Y-891438D01*
X3950157Y-869696D01*
X3945178Y-853897D01*
X3937508Y-838555D01*
X3930243Y-827176D01*
X3908298Y-805230D01*
X3893870Y-795985D01*
X3879697Y-788873D01*
X3856888Y-781405D01*
X3837127Y-778256D01*
X3830167Y-777544D01*
G37*
G36*
X4186224Y-777392D02*
G01*
X4144670Y-778052D01*
X4124909Y-783031D01*
X4111091Y-788263D01*
X4098188Y-795223D01*
X4085742Y-804113D01*
X4072077Y-817930D01*
X4063085Y-829818D01*
X4052163Y-849172D01*
X4044238Y-868578D01*
X4037380Y-892200D01*
X4031589Y-923086D01*
X4028541Y-949909D01*
X4026357Y-998118D01*
X4028006Y-1035862D01*
X4087469Y-1035862D01*
X4087469Y-961694D01*
X4090873Y-925068D01*
X4093870Y-904341D01*
X4100626Y-878281D01*
X4106519Y-863447D01*
X4115003Y-849223D01*
X4130497Y-834440D01*
X4147058Y-826516D01*
X4165447Y-823721D01*
X4176318Y-823976D01*
X4188155Y-825703D01*
X4200702Y-829868D01*
X4215333Y-839622D01*
X4224832Y-850239D01*
X4232859Y-863752D01*
X4238244Y-877163D01*
X4244086Y-899363D01*
X4247896Y-922121D01*
X4250080Y-943864D01*
X4251960Y-976528D01*
X4251960Y-1020013D01*
X4250080Y-1052677D01*
X4247896Y-1074420D01*
X4244086Y-1097178D01*
X4238244Y-1119378D01*
X4232859Y-1132789D01*
X4224832Y-1146302D01*
X4215333Y-1156919D01*
X4200702Y-1166672D01*
X4188206Y-1170736D01*
X4175861Y-1173073D01*
X4155592Y-1172057D01*
X4144213Y-1168908D01*
X4131360Y-1162659D01*
X4120083Y-1153566D01*
X4111650Y-1142695D01*
X4102862Y-1124864D01*
X4097782Y-1109065D01*
X4093921Y-1092250D01*
X4090873Y-1072438D01*
X4087469Y-1035862D01*
X4028006Y-1035862D01*
X4028541Y-1047750D01*
X4031589Y-1073454D01*
X4037533Y-1105103D01*
X4043527Y-1125880D01*
X4051350Y-1145641D01*
X4059326Y-1160475D01*
X4069842Y-1176324D01*
X4085742Y-1192479D01*
X4100169Y-1202690D01*
X4113631Y-1209497D01*
X4131056Y-1215339D01*
X4144670Y-1218438D01*
X4182262Y-1219555D01*
X4199737Y-1217269D01*
X4218076Y-1212494D01*
X4235805Y-1204772D01*
X4251198Y-1194409D01*
X4266184Y-1180236D01*
X4277664Y-1164793D01*
X4286504Y-1148588D01*
X4293666Y-1131773D01*
X4301388Y-1106068D01*
X4306265Y-1081328D01*
X4309414Y-1058672D01*
X4312310Y-1020013D01*
X4312310Y-975512D01*
X4309465Y-939647D01*
X4307332Y-922121D01*
X4302353Y-895400D01*
X4295546Y-870712D01*
X4289704Y-855624D01*
X4279493Y-835101D01*
X4266082Y-816305D01*
X4251502Y-802436D01*
X4237634Y-793292D01*
X4223816Y-786384D01*
X4205020Y-780440D01*
G37*
G36*
X3543858Y-784148D02*
G01*
X3543858Y-959205D01*
X3385616Y-959205D01*
X3385616Y-784199D01*
X3327298Y-784199D01*
X3327298Y-1211427D01*
X3385616Y-1211427D01*
X3385616Y-1008684D01*
X3543858Y-1008684D01*
X3543858Y-1211427D01*
X3602228Y-1211427D01*
X3602228Y-784148D01*
G37*
G36*
X3933037Y-1478940D02*
G01*
X3915308Y-1480464D01*
X3900424Y-1485544D01*
X3887571Y-1493113D01*
X3876141Y-1504442D01*
X3867200Y-1517853D01*
X3861104Y-1531366D01*
X3856380Y-1545793D01*
X3854246Y-1555089D01*
X3851351Y-1570939D01*
X3848506Y-1604518D01*
X3848506Y-1625295D01*
X3849725Y-1639163D01*
X3884625Y-1639163D01*
X3884625Y-1588719D01*
X3887114Y-1567942D01*
X3889095Y-1557070D01*
X3893210Y-1541221D01*
X3899865Y-1526743D01*
X3906824Y-1517243D01*
X3917238Y-1510131D01*
X3927094Y-1507134D01*
X3939946Y-1507236D01*
X3948277Y-1509877D01*
X3956913Y-1514906D01*
X3965041Y-1523746D01*
X3970375Y-1534261D01*
X3975100Y-1546758D01*
X3978859Y-1563979D01*
X3981500Y-1581810D01*
X3981450Y-1648053D01*
X3977944Y-1669796D01*
X3974134Y-1685239D01*
X3969359Y-1697075D01*
X3962704Y-1708099D01*
X3953256Y-1716633D01*
X3943908Y-1721256D01*
X3923131Y-1721256D01*
X3911701Y-1715617D01*
X3902201Y-1705914D01*
X3895902Y-1694180D01*
X3892804Y-1685645D01*
X3889959Y-1675739D01*
X3887114Y-1660906D01*
X3884625Y-1639163D01*
X3849725Y-1639163D01*
X3851503Y-1658823D01*
X3856329Y-1682851D01*
X3862527Y-1700479D01*
X3870401Y-1716125D01*
X3879087Y-1727454D01*
X3890518Y-1737563D01*
X3903370Y-1744319D01*
X3918204Y-1748942D01*
X3949852Y-1748840D01*
X3965701Y-1743557D01*
X3978300Y-1736089D01*
X3990848Y-1723643D01*
X3996842Y-1714906D01*
X4004970Y-1698904D01*
X4010609Y-1681225D01*
X4013758Y-1665884D01*
X4016756Y-1646072D01*
X4017873Y-1599336D01*
X4015435Y-1572869D01*
X4012692Y-1556054D01*
X4010456Y-1547164D01*
X4004614Y-1529029D01*
X3996131Y-1512366D01*
X3988104Y-1501495D01*
X3976573Y-1491335D01*
X3963720Y-1484528D01*
X3950360Y-1480261D01*
G37*
G36*
X3717442Y-1478940D02*
G01*
X3699967Y-1480413D01*
X3688740Y-1484172D01*
X3680866Y-1487576D01*
X3671925Y-1493570D01*
X3662324Y-1502664D01*
X3655009Y-1512570D01*
X3649014Y-1523441D01*
X3643884Y-1536293D01*
X3639007Y-1553108D01*
X3634943Y-1577848D01*
X3632860Y-1614525D01*
X3633195Y-1620367D01*
X3668217Y-1620367D01*
X3669436Y-1588516D01*
X3671570Y-1567942D01*
X3675583Y-1548231D01*
X3680612Y-1534312D01*
X3684524Y-1526387D01*
X3691585Y-1517091D01*
X3700068Y-1510995D01*
X3711295Y-1507134D01*
X3724351Y-1507236D01*
X3732276Y-1509776D01*
X3738829Y-1513179D01*
X3746957Y-1520494D01*
X3753205Y-1530350D01*
X3758437Y-1543202D01*
X3762349Y-1558036D01*
X3765499Y-1578914D01*
X3766870Y-1613458D01*
X3765448Y-1650034D01*
X3762349Y-1669796D01*
X3758539Y-1685086D01*
X3753256Y-1698498D01*
X3746906Y-1708454D01*
X3737559Y-1716684D01*
X3728313Y-1721256D01*
X3707536Y-1721256D01*
X3696462Y-1715820D01*
X3685540Y-1704339D01*
X3680307Y-1694027D01*
X3674516Y-1676755D01*
X3670655Y-1653997D01*
X3668217Y-1620367D01*
X3633195Y-1620367D01*
X3634892Y-1650034D01*
X3637889Y-1669796D01*
X3642664Y-1688795D01*
X3647440Y-1701495D01*
X3653891Y-1714296D01*
X3663645Y-1727555D01*
X3674922Y-1737309D01*
X3687775Y-1744319D01*
X3702608Y-1748942D01*
X3734257Y-1748840D01*
X3750056Y-1743557D01*
X3762705Y-1736089D01*
X3776014Y-1722932D01*
X3785057Y-1708404D01*
X3791051Y-1694281D01*
X3796893Y-1673758D01*
X3799941Y-1654962D01*
X3802024Y-1634489D01*
X3801973Y-1592681D01*
X3799027Y-1565960D01*
X3794963Y-1546504D01*
X3790391Y-1532229D01*
X3782263Y-1514856D01*
X3773373Y-1502410D01*
X3761232Y-1491386D01*
X3746144Y-1483614D01*
X3734257Y-1480210D01*
G37*
G36*
X3501847Y-1478940D02*
G01*
X3485591Y-1480312D01*
X3475990Y-1483156D01*
X3465220Y-1487678D01*
X3456330Y-1493723D01*
X3447694Y-1501698D01*
X3439414Y-1512570D01*
X3433419Y-1523441D01*
X3427171Y-1539748D01*
X3422294Y-1559052D01*
X3418789Y-1580794D01*
X3418775Y-1623669D01*
X3452876Y-1623669D01*
X3452926Y-1604518D01*
X3455822Y-1568958D01*
X3457905Y-1558036D01*
X3461004Y-1545183D01*
X3465525Y-1533194D01*
X3469894Y-1524660D01*
X3479088Y-1514754D01*
X3485997Y-1510436D01*
X3495751Y-1507134D01*
X3509772Y-1507286D01*
X3518662Y-1510588D01*
X3524656Y-1513890D01*
X3533597Y-1523492D01*
X3539134Y-1532890D01*
X3544112Y-1547164D01*
X3546754Y-1558290D01*
X3549751Y-1577848D01*
X3551885Y-1613865D01*
X3549751Y-1651000D01*
X3546703Y-1670812D01*
X3541725Y-1689607D01*
X3534664Y-1704441D01*
X3522218Y-1716836D01*
X3512718Y-1721256D01*
X3491941Y-1721256D01*
X3482594Y-1716938D01*
X3472738Y-1707692D01*
X3466693Y-1698294D01*
X3461715Y-1686052D01*
X3458718Y-1674774D01*
X3455822Y-1659940D01*
X3452876Y-1623669D01*
X3418775Y-1623669D01*
X3418738Y-1648053D01*
X3422294Y-1668830D01*
X3426256Y-1685645D01*
X3430371Y-1697532D01*
X3438144Y-1714296D01*
X3449015Y-1728470D01*
X3459429Y-1737410D01*
X3472179Y-1744319D01*
X3487013Y-1748942D01*
X3517646Y-1748942D01*
X3532428Y-1744268D01*
X3541420Y-1739747D01*
X3553714Y-1730502D01*
X3565347Y-1716074D01*
X3574542Y-1697278D01*
X3580231Y-1678736D01*
X3583432Y-1661922D01*
X3585565Y-1648053D01*
X3586632Y-1593646D01*
X3583330Y-1564995D01*
X3578301Y-1542288D01*
X3573272Y-1528368D01*
X3566363Y-1514551D01*
X3560267Y-1505661D01*
X3551428Y-1496161D01*
X3541877Y-1489151D01*
X3530498Y-1483664D01*
X3519576Y-1480261D01*
G37*
G36*
X3300069Y-1479550D02*
G01*
X3269437Y-1480159D01*
X3256584Y-1484579D01*
X3243376Y-1491437D01*
X3231286Y-1502410D01*
X3222650Y-1514551D01*
X3215538Y-1528775D01*
X3209798Y-1546199D01*
X3205835Y-1564995D01*
X3203143Y-1582775D01*
X3203143Y-1616506D01*
X3237026Y-1616506D01*
X3238347Y-1592681D01*
X3240328Y-1568958D01*
X3245002Y-1546199D01*
X3250234Y-1532382D01*
X3255365Y-1523542D01*
X3263493Y-1514754D01*
X3270402Y-1510436D01*
X3280156Y-1507134D01*
X3294126Y-1507286D01*
X3303066Y-1510588D01*
X3308959Y-1513890D01*
X3318103Y-1523441D01*
X3323234Y-1532382D01*
X3328060Y-1545183D01*
X3331159Y-1558036D01*
X3333292Y-1569923D01*
X3336137Y-1604518D01*
X3336188Y-1623669D01*
X3333191Y-1659940D01*
X3328415Y-1682851D01*
X3322574Y-1697989D01*
X3316325Y-1707692D01*
X3306419Y-1716938D01*
X3297123Y-1721256D01*
X3276346Y-1721256D01*
X3266795Y-1716836D01*
X3254400Y-1704441D01*
X3247339Y-1689607D01*
X3242360Y-1670812D01*
X3239363Y-1652016D01*
X3237026Y-1616506D01*
X3203143Y-1616506D01*
X3203143Y-1646072D01*
X3205784Y-1662887D01*
X3208680Y-1677720D01*
X3214522Y-1696821D01*
X3220415Y-1709928D01*
X3229356Y-1723745D01*
X3241903Y-1736089D01*
X3254603Y-1743557D01*
X3270402Y-1748840D01*
X3302050Y-1748942D01*
X3316833Y-1744319D01*
X3327908Y-1738680D01*
X3339896Y-1728673D01*
X3350818Y-1714296D01*
X3357930Y-1700072D01*
X3363671Y-1682648D01*
X3367633Y-1663903D01*
X3370275Y-1646072D01*
X3370275Y-1582775D01*
X3367735Y-1564995D01*
X3364788Y-1550162D01*
X3360674Y-1536293D01*
X3355035Y-1522120D01*
X3346551Y-1507744D01*
X3334765Y-1495044D01*
X3323691Y-1487525D01*
X3311956Y-1482750D01*
X3304032Y-1480464D01*
G37*
G36*
X3084474Y-1479550D02*
G01*
X3053791Y-1480159D01*
X3039465Y-1485239D01*
X3027578Y-1491589D01*
X3015132Y-1502968D01*
X3005734Y-1517040D01*
X2999130Y-1531366D01*
X2994152Y-1546199D01*
X2990138Y-1565960D01*
X2987548Y-1584756D01*
X2987548Y-1615135D01*
X3021838Y-1615135D01*
X3023616Y-1578813D01*
X3026714Y-1558036D01*
X3030575Y-1543202D01*
X3035858Y-1530350D01*
X3042107Y-1520494D01*
X3050590Y-1512824D01*
X3061716Y-1507744D01*
X3078530Y-1507134D01*
X3088843Y-1510741D01*
X3095752Y-1516024D01*
X3102762Y-1523441D01*
X3108502Y-1534312D01*
X3113582Y-1548587D01*
X3117646Y-1568958D01*
X3120542Y-1602536D01*
X3120542Y-1626311D01*
X3117646Y-1659940D01*
X3113582Y-1680260D01*
X3108502Y-1694535D01*
X3101898Y-1706473D01*
X3090926Y-1716887D01*
X3081528Y-1721256D01*
X3060750Y-1721256D01*
X3051505Y-1716684D01*
X3042107Y-1708404D01*
X3034639Y-1696872D01*
X3029610Y-1681683D01*
X3026816Y-1670812D01*
X3023666Y-1650034D01*
X3021838Y-1615135D01*
X2987548Y-1615135D01*
X2987598Y-1645107D01*
X2991104Y-1668475D01*
X2996692Y-1690624D01*
X3002991Y-1706321D01*
X3012287Y-1722018D01*
X3026308Y-1736089D01*
X3038957Y-1743557D01*
X3054807Y-1748637D01*
X3081629Y-1749653D01*
X3098342Y-1745437D01*
X3112160Y-1738833D01*
X3122523Y-1730603D01*
X3133394Y-1717446D01*
X3141421Y-1702054D01*
X3146399Y-1688795D01*
X3151174Y-1669796D01*
X3154324Y-1649018D01*
X3155696Y-1613814D01*
X3154324Y-1578813D01*
X3150057Y-1553108D01*
X3145180Y-1536293D01*
X3140049Y-1523441D01*
X3133090Y-1510792D01*
X3124047Y-1499565D01*
X3116122Y-1492554D01*
X3106064Y-1486408D01*
X3092399Y-1481226D01*
G37*
G36*
X4462322Y-1483360D02*
G01*
X4265371Y-1483868D01*
X4264812Y-1513078D01*
X4345940Y-1513078D01*
X4345940Y-1744472D01*
X4381550Y-1744472D01*
X4382058Y-1513535D01*
X4463643Y-1513027D01*
X4463643Y-1484680D01*
G37*
G36*
X4042460Y-1483360D02*
G01*
X4041292Y-1485239D01*
X4064050Y-1638147D01*
X4080103Y-1744472D01*
X4113479Y-1744472D01*
X4144264Y-1609496D01*
X4148277Y-1593189D01*
X4149851Y-1593189D01*
X4183735Y-1742998D01*
X4183735Y-1744472D01*
X4217263Y-1744472D01*
X4218279Y-1741017D01*
X4255922Y-1487830D01*
X4255973Y-1483360D01*
X4223054Y-1483868D01*
X4221530Y-1486865D01*
X4219244Y-1508607D01*
X4203496Y-1642110D01*
X4201566Y-1656943D01*
X4198518Y-1684629D01*
X4197502Y-1691081D01*
X4196029Y-1691081D01*
X4179214Y-1610969D01*
X4167428Y-1556054D01*
X4130344Y-1555546D01*
X4130344Y-1556461D01*
X4106570Y-1667814D01*
X4103878Y-1679702D01*
X4101287Y-1693113D01*
X4099763Y-1690370D01*
X4075633Y-1484884D01*
X4073499Y-1483410D01*
G37*
G36*
X2938627Y-1483360D02*
G01*
X2775000Y-1483868D01*
X2775305Y-1499768D01*
X2867964Y-1744014D01*
X2904896Y-1744522D01*
X2814675Y-1514906D01*
X2816555Y-1513078D01*
X2939084Y-1512570D01*
X2939643Y-1485950D01*
G37*
G36*
X3722370Y-1590141D02*
G01*
X3709974Y-1590954D01*
X3702100Y-1596186D01*
X3696309Y-1604162D01*
X3694328Y-1613458D01*
X3696106Y-1622856D01*
X3701084Y-1630172D01*
X3709162Y-1635607D01*
X3717950Y-1636928D01*
X3726586Y-1635607D01*
X3735425Y-1629968D01*
X3740658Y-1619504D01*
X3740658Y-1607972D01*
X3736644Y-1599438D01*
X3730040Y-1593037D01*
G37*
G36*
X3930091Y-1590192D02*
G01*
X3922522Y-1592326D01*
X3914597Y-1599438D01*
X3911041Y-1606499D01*
X3909771Y-1613662D01*
X3911904Y-1623568D01*
X3917797Y-1631645D01*
X3928668Y-1636928D01*
X3941064Y-1635963D01*
X3946906Y-1632915D01*
X3952595Y-1627276D01*
X3956253Y-1619351D01*
X3956253Y-1608480D01*
X3951579Y-1598472D01*
X3943908Y-1592122D01*
X3937965Y-1590395D01*
G37*
G36*
X3498850Y-1590192D02*
G01*
X3491839Y-1592173D01*
X3483711Y-1599082D01*
X3479444Y-1607972D01*
X3479495Y-1619758D01*
X3483356Y-1627327D01*
X3488944Y-1632915D01*
X3494836Y-1635963D01*
X3507232Y-1636928D01*
X3517950Y-1631696D01*
X3522675Y-1625295D01*
X3525062Y-1619758D01*
X3525062Y-1607616D01*
X3521151Y-1599488D01*
X3514445Y-1593037D01*
X3506774Y-1590294D01*
G37*
G36*
X3283254Y-1590192D02*
G01*
X3276193Y-1592173D01*
X3268167Y-1599031D01*
X3264001Y-1607972D01*
X3264001Y-1619351D01*
X3267659Y-1627378D01*
X3276193Y-1634693D01*
X3283254Y-1636674D01*
X3292144Y-1636674D01*
X3302101Y-1632051D01*
X3307486Y-1624939D01*
X3309569Y-1619453D01*
X3309620Y-1607972D01*
X3305556Y-1599488D01*
X3298850Y-1593037D01*
X3291179Y-1590294D01*
G37*
G36*
X3066694Y-1590192D02*
G01*
X3056686Y-1594866D01*
X3050692Y-1602536D01*
X3048152Y-1608988D01*
X3048965Y-1621790D01*
X3054858Y-1630222D01*
X3062986Y-1635912D01*
X3075838Y-1636928D01*
X3086658Y-1632000D01*
X3091738Y-1625295D01*
X3094075Y-1619351D01*
X3094126Y-1607413D01*
X3090113Y-1599590D01*
X3083255Y-1593037D01*
X3075584Y-1590294D01*
G37*
G36*
X1862582Y3968089D02*
G01*
X1814880Y3967378D01*
X1815439Y3963415D01*
X1883003Y3651859D01*
X1950872Y3337661D01*
X1952243Y3332987D01*
X1998218Y3332987D01*
X2002485Y3350920D01*
X2043684Y3531209D01*
X2046528Y3544468D01*
X2048357Y3547872D01*
X2097125Y3332987D01*
X2143658Y3333038D01*
X2197354Y3692804D01*
X2197354Y3697579D01*
X2149602Y3697579D01*
X2149703Y3695598D01*
X2116023Y3407918D01*
X2114346Y3405886D01*
X2101748Y3466236D01*
X2073605Y3598164D01*
X2022500Y3597808D01*
X2018842Y3581603D01*
X1980641Y3403447D01*
X1979675Y3404412D01*
G37*
G36*
X1704187Y3876548D02*
G01*
X1704187Y3168599D01*
X3238093Y3168599D01*
X3238093Y3876548D01*
X1975967Y3876548D01*
X1975967Y3814267D01*
X3174441Y3814267D01*
X3174441Y3232251D01*
X1766824Y3231489D01*
X1764842Y3876548D01*
G37*
G36*
X800658Y3722776D02*
G01*
X780745Y3718966D01*
X760882Y3711956D01*
X742899Y3701237D01*
X724560Y3683050D01*
X713486Y3666744D01*
X702157Y3642563D01*
X695452Y3622294D01*
X691388Y3605479D01*
X687273Y3582924D01*
X683361Y3541826D01*
X683361Y3487165D01*
X685044Y3470249D01*
X738378Y3470249D01*
X738378Y3559048D01*
X741883Y3586886D01*
X747115Y3613404D01*
X752449Y3630625D01*
X764032Y3654704D01*
X778611Y3669487D01*
X796594Y3678326D01*
X824534Y3678986D01*
X835710Y3675379D01*
X847344Y3668572D01*
X861669Y3653078D01*
X870203Y3636975D01*
X878128Y3612896D01*
X883615Y3584244D01*
X887476Y3540506D01*
X887476Y3488791D01*
X883564Y3445967D01*
X878128Y3417722D01*
X870203Y3393643D01*
X862076Y3378352D01*
X851052Y3365246D01*
X839927Y3356660D01*
X825957Y3351377D01*
X795375Y3352241D01*
X780237Y3359658D01*
X764489Y3375558D01*
X755243Y3393338D01*
X748131Y3413201D01*
X741883Y3443732D01*
X738378Y3470249D01*
X685044Y3470249D01*
X687425Y3446373D01*
X693978Y3413861D01*
X702157Y3388055D01*
X713587Y3364179D01*
X723442Y3349599D01*
X741019Y3331464D01*
X755751Y3321304D01*
X766216Y3316833D01*
X780796Y3311651D01*
X803300Y3307892D01*
X823214Y3307892D01*
X844397Y3311651D01*
X859028Y3316833D01*
X870915Y3322320D01*
X882548Y3330143D01*
X897128Y3344265D01*
X909066Y3359759D01*
X922019Y3385210D01*
X929690Y3409238D01*
X935482Y3434435D01*
X937920Y3449015D01*
X941832Y3491433D01*
X941882Y3540506D01*
X939190Y3569665D01*
X936244Y3592220D01*
X930097Y3621379D01*
X920445Y3649218D01*
X908354Y3671722D01*
X900684Y3682949D01*
X884021Y3699611D01*
X866749Y3710889D01*
X844397Y3719169D01*
X827176Y3722420D01*
G37*
G36*
X470560Y3722776D02*
G01*
X450697Y3718915D01*
X436067Y3713784D01*
X425653Y3709263D01*
X409905Y3698595D01*
X393852Y3682339D01*
X383489Y3666439D01*
X372110Y3642563D01*
X365302Y3621379D01*
X361289Y3605479D01*
X357124Y3581603D01*
X354758Y3556406D01*
X408228Y3556406D01*
X411734Y3585565D01*
X415594Y3606800D01*
X422401Y3630625D01*
X431038Y3649218D01*
X441502Y3662984D01*
X452018Y3671417D01*
X466598Y3678275D01*
X495757Y3678986D01*
X505155Y3675379D01*
X515620Y3670046D01*
X528878Y3656736D01*
X537972Y3641699D01*
X547014Y3617569D01*
X553161Y3586886D01*
X556717Y3557727D01*
X556717Y3472891D01*
X553313Y3445052D01*
X549402Y3423818D01*
X542594Y3399942D01*
X533908Y3381400D01*
X522935Y3366871D01*
X510336Y3356864D01*
X496316Y3351580D01*
X468680Y3351580D01*
X454659Y3356864D01*
X442061Y3366871D01*
X431038Y3381400D01*
X422401Y3399942D01*
X415594Y3423818D01*
X411683Y3445052D01*
X408279Y3472891D01*
X408228Y3556406D01*
X354758Y3556406D01*
X353263Y3540506D01*
X353263Y3488791D01*
X357174Y3449015D01*
X359664Y3434435D01*
X364032Y3413201D01*
X373126Y3385159D01*
X386029Y3359759D01*
X398068Y3344265D01*
X412242Y3330651D01*
X424078Y3322269D01*
X436067Y3316833D01*
X450697Y3311651D01*
X473201Y3307892D01*
X493115Y3307892D01*
X514502Y3311651D01*
X536600Y3319729D01*
X552907Y3330346D01*
X570636Y3348278D01*
X580034Y3361436D01*
X592886Y3388055D01*
X599694Y3409238D01*
X603707Y3425139D01*
X607872Y3449015D01*
X611733Y3488791D01*
X611733Y3541826D01*
X607822Y3582924D01*
X603758Y3605479D01*
X600862Y3617366D01*
X594156Y3639921D01*
X581660Y3666693D01*
X570179Y3683660D01*
X553618Y3700068D01*
X538175Y3709924D01*
X520954Y3716934D01*
X510336Y3719982D01*
X498398Y3722471D01*
G37*
G36*
X140462Y3722776D02*
G01*
X120548Y3718915D01*
X105918Y3713835D01*
X91389Y3706520D01*
X80772Y3699205D01*
X67411Y3686301D01*
X55727Y3670503D01*
X43230Y3645915D01*
X35204Y3621379D01*
X31242Y3604107D01*
X28600Y3590848D01*
X27025Y3581298D01*
X23164Y3539185D01*
X23164Y3492652D01*
X77470Y3492652D01*
X77470Y3538118D01*
X80111Y3572306D01*
X84277Y3601465D01*
X90932Y3626459D01*
X97688Y3643325D01*
X107543Y3658463D01*
X121310Y3671265D01*
X136448Y3678275D01*
X165658Y3678986D01*
X175056Y3675379D01*
X186080Y3669741D01*
X201015Y3654501D01*
X212547Y3630625D01*
X217932Y3613404D01*
X223164Y3586886D01*
X226618Y3559048D01*
X226517Y3468878D01*
X221894Y3436061D01*
X216763Y3412947D01*
X209753Y3393338D01*
X200507Y3375558D01*
X184759Y3359658D01*
X169621Y3352241D01*
X139750Y3351326D01*
X127965Y3355340D01*
X115620Y3363823D01*
X107594Y3372104D01*
X97434Y3387648D01*
X89712Y3407918D01*
X83972Y3431336D01*
X80264Y3456990D01*
X77470Y3492652D01*
X23164Y3492652D01*
X26974Y3450336D01*
X31089Y3426460D01*
X35306Y3409238D01*
X43281Y3385362D01*
X56083Y3359810D01*
X68224Y3343808D01*
X86106Y3327450D01*
X104648Y3317087D01*
X121869Y3311499D01*
X143103Y3307892D01*
X162966Y3307842D01*
X184200Y3311601D01*
X196900Y3315919D01*
X208737Y3320999D01*
X224282Y3331565D01*
X240690Y3347974D01*
X251460Y3363823D01*
X263093Y3388360D01*
X269748Y3409238D01*
X273608Y3425139D01*
X277774Y3447694D01*
X281635Y3487470D01*
X281635Y3544468D01*
X277723Y3582924D01*
X273558Y3606800D01*
X268325Y3627323D01*
X261416Y3646576D01*
X251206Y3667150D01*
X240080Y3683660D01*
X223469Y3700068D01*
X208076Y3709924D01*
X190804Y3716934D01*
X180238Y3719982D01*
X168300Y3722471D01*
G37*
G36*
X-189687Y3722776D02*
G01*
X-209550Y3718915D01*
X-224790Y3713632D01*
X-242925Y3704132D01*
X-257911Y3691432D01*
X-273710Y3671722D01*
X-288137Y3642563D01*
X-296113Y3616045D01*
X-298856Y3604107D01*
X-303072Y3579977D01*
X-306984Y3537813D01*
X-306984Y3494227D01*
X-252628Y3494227D01*
X-252628Y3536645D01*
X-249936Y3572306D01*
X-245821Y3600145D01*
X-240588Y3621379D01*
X-235305Y3635705D01*
X-226974Y3652926D01*
X-211683Y3669284D01*
X-193802Y3678377D01*
X-164490Y3679139D01*
X-148996Y3672586D01*
X-138480Y3665321D01*
X-127762Y3651859D01*
X-119075Y3634638D01*
X-112217Y3614115D01*
X-108153Y3594354D01*
X-103530Y3564331D01*
X-103581Y3466236D01*
X-108153Y3436264D01*
X-112268Y3416401D01*
X-120497Y3392017D01*
X-127050Y3380079D01*
X-136499Y3367125D01*
X-151892Y3355746D01*
X-165201Y3351326D01*
X-194970Y3352241D01*
X-208229Y3358692D01*
X-227025Y3377437D01*
X-236778Y3397300D01*
X-244805Y3425139D01*
X-249834Y3456990D01*
X-252628Y3494227D01*
X-306984Y3494227D01*
X-306984Y3492754D01*
X-303022Y3451656D01*
X-300532Y3435756D01*
X-297789Y3421786D01*
X-293573Y3405276D01*
X-286715Y3385362D01*
X-274828Y3361537D01*
X-263093Y3345027D01*
X-244144Y3327501D01*
X-225450Y3317087D01*
X-208229Y3311601D01*
X-186994Y3307842D01*
X-167132Y3307842D01*
X-145897Y3311601D01*
X-133197Y3315919D01*
X-121970Y3320745D01*
X-106984Y3330346D01*
X-89560Y3347720D01*
X-79349Y3362858D01*
X-70053Y3381400D01*
X-63042Y3399129D01*
X-56489Y3423818D01*
X-52374Y3447694D01*
X-48463Y3484422D01*
X-48463Y3545789D01*
X-52425Y3585057D01*
X-59436Y3620058D01*
X-68529Y3646576D01*
X-80518Y3670401D01*
X-95758Y3690315D01*
X-113487Y3705250D01*
X-132638Y3714597D01*
X-149910Y3719982D01*
X-161848Y3722471D01*
G37*
G36*
X-519785Y3722776D02*
G01*
X-539648Y3718915D01*
X-555396Y3713479D01*
X-572770Y3703929D01*
X-579424Y3698798D01*
X-593648Y3684981D01*
X-605028Y3669080D01*
X-616915Y3645204D01*
X-623671Y3625342D01*
X-627684Y3609441D01*
X-631545Y3589528D01*
X-633272Y3577590D01*
X-637082Y3535172D01*
X-637034Y3496310D01*
X-582777Y3496310D01*
X-582777Y3534308D01*
X-578713Y3584244D01*
X-572160Y3616451D01*
X-565200Y3635959D01*
X-555955Y3654348D01*
X-541629Y3669385D01*
X-523900Y3678377D01*
X-494588Y3679139D01*
X-479094Y3672586D01*
X-468274Y3665118D01*
X-457047Y3650843D01*
X-448462Y3633317D01*
X-442417Y3614724D01*
X-437083Y3588207D01*
X-434136Y3565702D01*
X-432257Y3516629D01*
X-434085Y3464915D01*
X-437083Y3442411D01*
X-442417Y3415893D01*
X-450342Y3392017D01*
X-461264Y3373424D01*
X-474726Y3360013D01*
X-490626Y3352241D01*
X-525068Y3352241D01*
X-538327Y3358692D01*
X-557072Y3377437D01*
X-566572Y3397300D01*
X-573278Y3418738D01*
X-578764Y3447084D01*
X-582777Y3496310D01*
X-637034Y3496310D01*
X-633222Y3451656D01*
X-628904Y3426460D01*
X-622401Y3401822D01*
X-615543Y3382721D01*
X-606247Y3364179D01*
X-595477Y3348278D01*
X-582066Y3334004D01*
X-566166Y3322726D01*
X-552907Y3316071D01*
X-538327Y3311651D01*
X-517143Y3307842D01*
X-497230Y3307842D01*
X-475996Y3311550D01*
X-456234Y3318459D01*
X-437794Y3329635D01*
X-420217Y3346907D01*
X-408990Y3363518D01*
X-398627Y3384042D01*
X-389331Y3411880D01*
X-382574Y3445306D01*
X-378612Y3483101D01*
X-378612Y3547465D01*
X-382676Y3586886D01*
X-389178Y3618687D01*
X-398576Y3646881D01*
X-410667Y3670401D01*
X-422249Y3686708D01*
X-438912Y3701796D01*
X-456133Y3712057D01*
X-478688Y3719829D01*
X-491947Y3722420D01*
G37*
G36*
X1319631Y3714851D02*
G01*
X1320393Y3670401D01*
X1443532Y3669741D01*
X1445615Y3666439D01*
X1445615Y3316427D01*
X1498752Y3316427D01*
X1498650Y3665474D01*
X1500276Y3669741D01*
X1624634Y3669741D01*
X1624634Y3714851D01*
G37*
G36*
X977646Y3714851D02*
G01*
X977646Y3713734D01*
X985824Y3659835D01*
X988009Y3643884D01*
X998880Y3570986D01*
X1004112Y3537813D01*
X1017473Y3447338D01*
X1021384Y3422497D01*
X1036167Y3321761D01*
X1037386Y3315766D01*
X1087526Y3315766D01*
X1088948Y3318001D01*
X1140815Y3545484D01*
X1143203Y3549751D01*
X1144524Y3545789D01*
X1162964Y3463594D01*
X1196695Y3315766D01*
X1247749Y3315766D01*
X1306576Y3710178D01*
X1307947Y3714851D01*
X1254861Y3714851D01*
X1253591Y3706215D01*
X1217472Y3399383D01*
X1215034Y3397859D01*
X1198930Y3474212D01*
X1196492Y3484829D01*
X1181760Y3555085D01*
X1171041Y3604564D01*
X1167028Y3606139D01*
X1115466Y3606139D01*
X1113129Y3600145D01*
X1107490Y3572306D01*
X1105001Y3561689D01*
X1069848Y3396640D01*
X1068019Y3396640D01*
X1066495Y3406597D01*
X1030732Y3710178D01*
X1030681Y3714851D01*
G37*
G36*
X-961237Y3714851D02*
G01*
X-960424Y3690315D01*
X-825093Y3333648D01*
X-818489Y3315766D01*
X-763066Y3315766D01*
X-763066Y3318814D01*
X-899617Y3666083D01*
X-899617Y3669741D01*
X-710031Y3669741D01*
X-710031Y3714851D01*
G37*
G36*
X2945739Y3704183D02*
G01*
X2920746Y3701542D01*
X2902000Y3695954D01*
X2888742Y3689299D01*
X2878124Y3682034D01*
X2863037Y3666439D01*
X2854401Y3654501D01*
X2843276Y3631946D01*
X2836621Y3610762D01*
X2831287Y3584244D01*
X2828391Y3564331D01*
X2825851Y3512921D01*
X2826960Y3492754D01*
X2877515Y3492754D01*
X2877515Y3536492D01*
X2881274Y3580384D01*
X2884373Y3598824D01*
X2889453Y3618280D01*
X2897428Y3635806D01*
X2907741Y3649472D01*
X2922270Y3659124D01*
X2937662Y3663137D01*
X2960319Y3662984D01*
X2976219Y3657803D01*
X2988716Y3648608D01*
X2999130Y3635451D01*
X3007360Y3615690D01*
X3011271Y3600551D01*
X3015284Y3576269D01*
X3017977Y3545789D01*
X3017977Y3489960D01*
X3015284Y3454298D01*
X3011271Y3430015D01*
X3007360Y3414928D01*
X2999435Y3395979D01*
X2989427Y3382772D01*
X2976219Y3372815D01*
X2964281Y3368497D01*
X2935782Y3367125D01*
X2915767Y3374440D01*
X2902000Y3387090D01*
X2893568Y3401314D01*
X2886862Y3421176D01*
X2881274Y3448964D01*
X2877515Y3492754D01*
X2826960Y3492754D01*
X2828544Y3464915D01*
X2832455Y3438398D01*
X2837789Y3415893D01*
X2843276Y3399942D01*
X2853182Y3378606D01*
X2862884Y3364179D01*
X2878124Y3348532D01*
X2892399Y3339337D01*
X2906979Y3332886D01*
X2928518Y3327704D01*
X2952648Y3326028D01*
X2974898Y3329178D01*
X2989478Y3333140D01*
X3002737Y3338677D01*
X3015996Y3347161D01*
X3031185Y3361029D01*
X3043123Y3379012D01*
X3051505Y3395878D01*
X3057855Y3414522D01*
X3062935Y3435756D01*
X3068726Y3475532D01*
X3068828Y3553764D01*
X3064256Y3588207D01*
X3057753Y3616350D01*
X3051505Y3634638D01*
X3042869Y3651859D01*
X3030778Y3669893D01*
X3015996Y3683457D01*
X3002381Y3692194D01*
X2985516Y3698798D01*
X2973578Y3701897D01*
X2952394Y3703828D01*
G37*
G36*
X2643479Y3704183D02*
G01*
X2612999Y3701542D01*
X2586482Y3696004D01*
X2565247Y3689858D01*
X2551988Y3684930D01*
X2551277Y3636619D01*
X2554732Y3636619D01*
X2560116Y3640378D01*
X2583789Y3652215D01*
X2604516Y3659073D01*
X2625953Y3663442D01*
X2666034Y3662172D01*
X2684881Y3655568D01*
X2699867Y3645560D01*
X2708757Y3634638D01*
X2713482Y3625342D01*
X2717038Y3612083D01*
X2717038Y3595624D01*
X2713278Y3581095D01*
X2710078Y3574948D01*
X2701290Y3564128D01*
X2683256Y3554679D01*
X2666034Y3548938D01*
X2616962Y3537356D01*
X2601061Y3532174D01*
X2584450Y3525215D01*
X2566568Y3514242D01*
X2555494Y3505200D01*
X2544368Y3490468D01*
X2535631Y3471519D01*
X2530805Y3449015D01*
X2530906Y3417214D01*
X2535478Y3394659D01*
X2548636Y3367836D01*
X2569616Y3348075D01*
X2588310Y3338271D01*
X2599740Y3334105D01*
X2612999Y3330600D01*
X2634183Y3327196D01*
X2676601Y3327044D01*
X2700477Y3330600D01*
X2727452Y3337001D01*
X2754833Y3346551D01*
X2759456Y3348990D01*
X2759456Y3399282D01*
X2756509Y3399282D01*
X2741574Y3390290D01*
X2724454Y3381756D01*
X2701798Y3373018D01*
X2675280Y3367278D01*
X2636824Y3367328D01*
X2616098Y3372713D01*
X2599740Y3381400D01*
X2588818Y3392220D01*
X2581910Y3404006D01*
X2577541Y3421176D01*
X2578811Y3447694D01*
X2584653Y3462934D01*
X2597607Y3477056D01*
X2612999Y3485134D01*
X2630220Y3490976D01*
X2663342Y3498748D01*
X2680614Y3503015D01*
X2704084Y3510787D01*
X2724353Y3520998D01*
X2740558Y3532936D01*
X2753309Y3549497D01*
X2760370Y3567023D01*
X2763774Y3583330D01*
X2762504Y3620058D01*
X2756560Y3638600D01*
X2748686Y3654298D01*
X2736646Y3669944D01*
X2719019Y3684524D01*
X2695194Y3696208D01*
X2673096Y3701694D01*
X2648762Y3703878D01*
G37*
G36*
X2463850Y3697630D02*
G01*
X2415438Y3696919D01*
X2414117Y3548430D01*
X2281529Y3548430D01*
X2280208Y3696919D01*
X2231136Y3696919D01*
X2230475Y3334359D01*
X2280869Y3334359D01*
X2280869Y3506673D01*
X2414778Y3506673D01*
X2414778Y3334359D01*
X2464511Y3334359D01*
G37*
G36*
X473811Y3551783D02*
G01*
X464769Y3547973D01*
X452983Y3537102D01*
X447090Y3523437D01*
X448157Y3506012D01*
X453135Y3495649D01*
X461518Y3487318D01*
X471881Y3482238D01*
X491794Y3481324D01*
X506323Y3488791D01*
X514908Y3500170D01*
X517906Y3511296D01*
X516788Y3527247D01*
X512267Y3536645D01*
X502361Y3546856D01*
X491794Y3551682D01*
G37*
G36*
X146050Y3551783D02*
G01*
X135636Y3548634D01*
X124002Y3538423D01*
X116941Y3523945D01*
X118059Y3506012D01*
X122580Y3496614D01*
X131826Y3487115D01*
X141782Y3482289D01*
X160528Y3481222D01*
X174244Y3487115D01*
X183184Y3497021D01*
X187807Y3509213D01*
X186740Y3527247D01*
X181914Y3537153D01*
X173532Y3546297D01*
X161645Y3551682D01*
G37*
G36*
X-184048Y3551783D02*
G01*
X-194970Y3548532D01*
X-208483Y3535121D01*
X-213207Y3520897D01*
X-211836Y3505809D01*
X-206349Y3495090D01*
X-194462Y3484626D01*
X-184048Y3481476D01*
X-168452Y3481527D01*
X-155041Y3487775D01*
X-145694Y3498697D01*
X-142392Y3509670D01*
X-142443Y3525012D01*
X-146558Y3534765D01*
X-155041Y3545484D01*
X-168452Y3551732D01*
G37*
G36*
X-515823Y3551732D02*
G01*
X-529183Y3545484D01*
X-538937Y3534156D01*
X-543306Y3520897D01*
X-541883Y3505352D01*
X-535025Y3493668D01*
X-524459Y3484575D01*
X-514146Y3481476D01*
X-499872Y3481527D01*
X-490270Y3484168D01*
X-478231Y3494786D01*
X-472440Y3506724D01*
X-472338Y3524707D01*
X-477824Y3537051D01*
X-489305Y3548532D01*
X-498551Y3551478D01*
G37*
G36*
X803300Y3551682D02*
G01*
X792683Y3546856D01*
X780491Y3533343D01*
X777138Y3521354D01*
X778256Y3504488D01*
X786841Y3491077D01*
X796950Y3484067D01*
X805942Y3481476D01*
X822096Y3481476D01*
X836472Y3488791D01*
X844956Y3500120D01*
X847699Y3509975D01*
X847699Y3524605D01*
X841400Y3537813D01*
X831138Y3547668D01*
X821893Y3551682D01*
G37*
D10*
X-3352825Y2212847D02*
G01*
X-3371367Y2221992D01*
X-3399053Y2249678D01*
X-3399053Y2055876D01*
X-3469157Y2203450D02*
G01*
X-3469157Y2212847D01*
X-3478555Y2231389D01*
X-3487699Y2240534D01*
X-3506241Y2249678D01*
X-3543071Y2249678D01*
X-3561613Y2240534D01*
X-3570757Y2231389D01*
X-3580155Y2212847D01*
X-3580155Y2194305D01*
X-3570757Y2175763D01*
X-3552215Y2148078D01*
X-3460013Y2055876D01*
X-3589299Y2055876D01*
X-3085203Y2212847D02*
G01*
X-3103745Y2221992D01*
X-3131431Y2249678D01*
X-3131431Y2055876D01*
X-3192391Y2212847D02*
G01*
X-3210933Y2221992D01*
X-3238619Y2249678D01*
X-3238619Y2055876D01*
X-2734525Y2212847D02*
G01*
X-2753067Y2221992D01*
X-2780753Y2249678D01*
X-2780753Y2055876D01*
X-2897085Y2249678D02*
G01*
X-2869399Y2240534D01*
X-2850857Y2212847D01*
X-2841713Y2166620D01*
X-2841713Y2138934D01*
X-2850857Y2092705D01*
X-2869399Y2065020D01*
X-2897085Y2055876D01*
X-2915627Y2055876D01*
X-2943313Y2065020D01*
X-2961855Y2092705D01*
X-2970999Y2138934D01*
X-2970999Y2166620D01*
X-2961855Y2212847D01*
X-2943313Y2240534D01*
X-2915627Y2249678D01*
X-2897085Y2249678D01*
X-2620322Y2185162D02*
G01*
X-2610924Y2157476D01*
X-2592636Y2138934D01*
X-2564950Y2129789D01*
X-2555552Y2129789D01*
X-2527866Y2138934D01*
X-2509324Y2157476D01*
X-2500180Y2185162D01*
X-2500180Y2194305D01*
X-2509324Y2221992D01*
X-2527866Y2240534D01*
X-2555552Y2249678D01*
X-2564950Y2249678D01*
X-2592636Y2240534D01*
X-2610924Y2221992D01*
X-2620322Y2185162D01*
X-2620322Y2138934D01*
X-2610924Y2092705D01*
X-2592636Y2065020D01*
X-2564950Y2055876D01*
X-2546408Y2055876D01*
X-2518722Y2065020D01*
X-2509324Y2083562D01*
X-2302916Y2249678D02*
G01*
X-2275230Y2240534D01*
X-2265832Y2221992D01*
X-2265832Y2203450D01*
X-2275230Y2185162D01*
X-2293518Y2175763D01*
X-2330602Y2166620D01*
X-2358288Y2157476D01*
X-2376830Y2138934D01*
X-2385974Y2120392D01*
X-2385974Y2092705D01*
X-2376830Y2074163D01*
X-2367432Y2065020D01*
X-2339746Y2055876D01*
X-2302916Y2055876D01*
X-2275230Y2065020D01*
X-2265832Y2074163D01*
X-2256688Y2092705D01*
X-2256688Y2120392D01*
X-2265832Y2138934D01*
X-2284374Y2157476D01*
X-2312060Y2166620D01*
X-2349144Y2175763D01*
X-2367432Y2185162D01*
X-2376830Y2203450D01*
X-2376830Y2221992D01*
X-2367432Y2240534D01*
X-2339746Y2249678D01*
X-2302916Y2249678D01*
X-2142482Y2249678D02*
G01*
X-2050026Y2055876D01*
X-2013196Y2249678D02*
G01*
X-2142482Y2249678D01*
X-1889594Y2221992D02*
G01*
X-1880450Y2240534D01*
X-1852764Y2249678D01*
X-1834222Y2249678D01*
X-1806536Y2240534D01*
X-1787994Y2212847D01*
X-1778850Y2166620D01*
X-1778850Y2120392D01*
X-1787994Y2083562D01*
X-1806536Y2065020D01*
X-1834222Y2055876D01*
X-1843620Y2055876D01*
X-1871306Y2065020D01*
X-1889594Y2083562D01*
X-1898992Y2111247D01*
X-1898992Y2120392D01*
X-1889594Y2148078D01*
X-1871306Y2166620D01*
X-1843620Y2175763D01*
X-1834222Y2175763D01*
X-1806536Y2166620D01*
X-1787994Y2148078D01*
X-1778850Y2120392D01*
X-1375181Y2249678D02*
G01*
X-1282725Y2120392D01*
X-1421155Y2120392D01*
X-1375181Y2249678D02*
G01*
X-1375181Y2055876D01*
X-1646102Y2249678D02*
G01*
X-1553900Y2249678D01*
X-1544502Y2166620D01*
X-1553900Y2175763D01*
X-1581586Y2185162D01*
X-1609272Y2185162D01*
X-1636958Y2175763D01*
X-1655500Y2157476D01*
X-1664644Y2129789D01*
X-1664644Y2111247D01*
X-1655500Y2083562D01*
X-1636958Y2065020D01*
X-1609272Y2055876D01*
X-1581586Y2055876D01*
X-1553900Y2065020D01*
X-1544502Y2074163D01*
X-1535358Y2092705D01*
X-1317269Y2521155D02*
G01*
X-1317269Y2530299D01*
X-1326667Y2548841D01*
X-1335811Y2557985D01*
X-1354353Y2567129D01*
X-1391183Y2567129D01*
X-1409725Y2557985D01*
X-1418869Y2548841D01*
X-1428267Y2530299D01*
X-1428267Y2511757D01*
X-1418869Y2493469D01*
X-1400581Y2465529D01*
X-1308125Y2373327D01*
X-1437411Y2373327D01*
X-1553743Y2567129D02*
G01*
X-1526057Y2557985D01*
X-1507515Y2530299D01*
X-1498371Y2484071D01*
X-1498371Y2456385D01*
X-1507515Y2410157D01*
X-1526057Y2382471D01*
X-1553743Y2373327D01*
X-1572285Y2373327D01*
X-1599971Y2382471D01*
X-1618513Y2410157D01*
X-1627657Y2456385D01*
X-1627657Y2484071D01*
X-1618513Y2530299D01*
X-1599971Y2557985D01*
X-1572285Y2567129D01*
X-1553743Y2567129D01*
X-1698015Y2521155D02*
G01*
X-1698015Y2530299D01*
X-1707159Y2548841D01*
X-1716303Y2557985D01*
X-1734845Y2567129D01*
X-1771675Y2567129D01*
X-1790217Y2557985D01*
X-1799615Y2548841D01*
X-1808759Y2530299D01*
X-1808759Y2511757D01*
X-1799615Y2493469D01*
X-1781073Y2465529D01*
X-1688617Y2373327D01*
X-1817903Y2373327D01*
X-1989861Y2539443D02*
G01*
X-1980463Y2557985D01*
X-1952777Y2567129D01*
X-1934235Y2567129D01*
X-1906549Y2557985D01*
X-1888261Y2530299D01*
X-1878863Y2484071D01*
X-1878863Y2437843D01*
X-1888261Y2401013D01*
X-1906549Y2382471D01*
X-1934235Y2373327D01*
X-1943633Y2373327D01*
X-1971319Y2382471D01*
X-1989861Y2401013D01*
X-1999005Y2428699D01*
X-1999005Y2437843D01*
X-1989861Y2465529D01*
X-1971319Y2484071D01*
X-1943633Y2493469D01*
X-1934235Y2493469D01*
X-1906549Y2484071D01*
X-1888261Y2465529D01*
X-1878863Y2437843D01*
X-2226335Y2604213D02*
G01*
X-2059965Y2308557D01*
X-2398039Y2539443D02*
G01*
X-2388895Y2557985D01*
X-2360955Y2567129D01*
X-2342667Y2567129D01*
X-2314981Y2557985D01*
X-2296439Y2530299D01*
X-2287295Y2484071D01*
X-2287295Y2437843D01*
X-2296439Y2401013D01*
X-2314981Y2382471D01*
X-2342667Y2373327D01*
X-2351811Y2373327D01*
X-2379497Y2382471D01*
X-2398039Y2401013D01*
X-2407183Y2428699D01*
X-2407183Y2437843D01*
X-2398039Y2465529D01*
X-2379497Y2484071D01*
X-2351811Y2493469D01*
X-2342667Y2493469D01*
X-2314981Y2484071D01*
X-2296439Y2465529D01*
X-2287295Y2437843D01*
X-3460267Y2567178D02*
G01*
X-3561867Y2567178D01*
X-3506495Y2493263D01*
X-3534181Y2493263D01*
X-3552469Y2484120D01*
X-3561867Y2474976D01*
X-3571011Y2447289D01*
X-3571011Y2428747D01*
X-3561867Y2401062D01*
X-3543325Y2382520D01*
X-3515639Y2373376D01*
X-3487953Y2373376D01*
X-3460267Y2382520D01*
X-3450869Y2391663D01*
X-3441725Y2410205D01*
X-3158769Y2520950D02*
G01*
X-3158769Y2530347D01*
X-3168167Y2548889D01*
X-3177311Y2558034D01*
X-3195853Y2567178D01*
X-3232683Y2567178D01*
X-3251225Y2558034D01*
X-3260369Y2548889D01*
X-3269767Y2530347D01*
X-3269767Y2511805D01*
X-3260369Y2493263D01*
X-3242081Y2465578D01*
X-3149625Y2373376D01*
X-3278911Y2373376D01*
X-2908325Y2530347D02*
G01*
X-2926867Y2539492D01*
X-2954553Y2567178D01*
X-2954553Y2373376D01*
X-2663469Y2539492D02*
G01*
X-2654325Y2558034D01*
X-2626639Y2567178D01*
X-2608097Y2567178D01*
X-2580411Y2558034D01*
X-2561869Y2530347D01*
X-2552725Y2484120D01*
X-2552725Y2437892D01*
X-2561869Y2401062D01*
X-2580411Y2382520D01*
X-2608097Y2373376D01*
X-2617495Y2373376D01*
X-2645181Y2382520D01*
X-2663469Y2401062D01*
X-2672867Y2428747D01*
X-2672867Y2437892D01*
X-2663469Y2465578D01*
X-2645181Y2484120D01*
X-2617495Y2493263D01*
X-2608097Y2493263D01*
X-2580411Y2484120D01*
X-2561869Y2465578D01*
X-2552725Y2437892D01*
D11*
X126984Y178808D02*
G01*
X126984Y69842D01*
X126984Y178808D02*
G01*
X90662Y178808D01*
X74914Y173728D01*
X64754Y163314D01*
X59420Y152900D01*
X54340Y137152D01*
X54340Y111244D01*
X59420Y95750D01*
X64754Y85336D01*
X74914Y74922D01*
X90662Y69842D01*
X126984Y69842D01*
X20050Y157980D02*
G01*
X9636Y163314D01*
X-6111Y178808D01*
X-6111Y69842D01*
X2806684Y178818D02*
G01*
X2806684Y69852D01*
X2806684Y178818D02*
G01*
X2770362Y178818D01*
X2754614Y173738D01*
X2744454Y163324D01*
X2739120Y152910D01*
X2734040Y137162D01*
X2734040Y111254D01*
X2739120Y95760D01*
X2744454Y85346D01*
X2754614Y74932D01*
X2770362Y69852D01*
X2806684Y69852D01*
X2694416Y152910D02*
G01*
X2694416Y157990D01*
X2689336Y168404D01*
X2684002Y173738D01*
X2673588Y178818D01*
X2653014Y178818D01*
X2642600Y173738D01*
X2637266Y168404D01*
X2632186Y157990D01*
X2632186Y147576D01*
X2637266Y137162D01*
X2647680Y121668D01*
X2699750Y69852D01*
X2626852Y69852D01*
X88910Y-75191D02*
G01*
X88910Y-184157D01*
X88910Y-75191D02*
G01*
X42174Y-75191D01*
X26680Y-80271D01*
X21346Y-85605D01*
X16266Y-96019D01*
X16266Y-106433D01*
X21346Y-116847D01*
X26680Y-121927D01*
X42174Y-127007D01*
X88910Y-127007D01*
X52588Y-127007D02*
G01*
X16266Y-184157D01*
X-18023Y-96019D02*
G01*
X-28437Y-90685D01*
X-44185Y-75191D01*
X-44185Y-184157D01*
X2768584Y-75181D02*
G01*
X2768584Y-184147D01*
X2768584Y-75181D02*
G01*
X2721848Y-75181D01*
X2706354Y-80261D01*
X2701020Y-85595D01*
X2695940Y-96009D01*
X2695940Y-106423D01*
X2701020Y-116837D01*
X2706354Y-121917D01*
X2721848Y-126997D01*
X2768584Y-126997D01*
X2732262Y-126997D02*
G01*
X2695940Y-184147D01*
X2656316Y-101089D02*
G01*
X2656316Y-96009D01*
X2651236Y-85595D01*
X2645902Y-80261D01*
X2635488Y-75181D01*
X2614914Y-75181D01*
X2604500Y-80261D01*
X2599166Y-85595D01*
X2594086Y-96009D01*
X2594086Y-106423D01*
X2599166Y-116837D01*
X2609580Y-132331D01*
X2661650Y-184147D01*
X2588752Y-184147D01*
X2768584Y2439438D02*
G01*
X2768584Y2330472D01*
X2768584Y2439438D02*
G01*
X2721848Y2439438D01*
X2706354Y2434358D01*
X2701020Y2429024D01*
X2695940Y2418610D01*
X2695940Y2408196D01*
X2701020Y2397782D01*
X2706354Y2392702D01*
X2721848Y2387622D01*
X2768584Y2387622D01*
X2732262Y2387622D02*
G01*
X2695940Y2330472D01*
X2651236Y2439438D02*
G01*
X2594086Y2439438D01*
X2625074Y2397782D01*
X2609580Y2397782D01*
X2599166Y2392702D01*
X2594086Y2387622D01*
X2588752Y2371874D01*
X2588752Y2361460D01*
X2594086Y2345966D01*
X2604500Y2335552D01*
X2619994Y2330472D01*
X2635488Y2330472D01*
X2651236Y2335552D01*
X2656316Y2340632D01*
X2661650Y2351046D01*
D12*
X-1079500Y-1295400D02*
G01*
X-1500499Y-1295400D01*
X-1079500Y-1295400D02*
G01*
X-833790Y-953543D01*
X-1225575Y2311400D02*
G01*
X-3638575Y2311400D01*
X-2749575Y2625725D02*
G01*
X-2749575Y2315176D01*
X-2470175Y2625725D02*
G01*
X-2470175Y2315176D01*
D13*
X2273274Y-876300D02*
G01*
X2273274Y-965200D01*
X1777974Y-856995D02*
G01*
X1777974Y-965200D01*
X1777974Y-856995D02*
G01*
X1777974Y-889632D01*
X1689074Y1562100D02*
G01*
X1689074Y-44175D01*
X1485874Y1270000D02*
G01*
X1485874Y-427624D01*
X-2435151Y839607D02*
G01*
X-1775147Y839607D01*
X-2435151Y1347607D02*
G01*
X-1775147Y1347607D01*
X-152425Y2006600D02*
G01*
X-72654Y1914128D01*
X1523974Y-1689100D02*
G01*
X1523974Y-1029101D01*
X2031974Y-1689100D02*
G01*
X2031974Y-1029101D01*
X50774Y1866900D02*
G01*
X1384274Y1866900D01*
D12*
X-1079500Y-1295400D02*
G01*
X-845972Y-1645691D01*
D13*
X1282674Y990600D02*
G01*
X1282674Y-965200D01*
X185966Y1244600D02*
G01*
X1015974Y1244600D01*
X20220Y1175946D02*
G01*
X-1488Y1154236D01*
X193949Y1409700D02*
G01*
X1346174Y1409700D01*
X-72654Y1914128D02*
G01*
X-99682Y1941156D01*
X14574Y1484000D02*
G01*
X-11054Y1509628D01*
X-93301Y1591876D02*
G01*
X14574Y1484000D01*
X-56578Y1099146D02*
G01*
X20220Y1175946D01*
X1689074Y-135524D02*
G01*
X1689074Y-44175D01*
X1485874Y-427624D02*
G01*
X1485874Y-372559D01*
X2273274Y-860844D02*
G01*
X2273274Y-893259D01*
X1533728Y-543153D02*
G01*
X1728762Y-738187D01*
X1736928Y-251053D02*
G01*
X2221341Y-735467D01*
D12*
X-247309Y-13007D02*
G01*
X272689Y-13007D01*
X272689Y-13007D02*
G01*
X272689Y266992D01*
X-247309Y266992D02*
G01*
X272689Y266992D01*
X-247309Y-13007D02*
G01*
X-247309Y266992D01*
X-151384Y-13007D02*
G01*
X-151384Y266992D01*
X2419675Y-12997D02*
G01*
X2939674Y-12997D01*
X2939674Y-12997D02*
G01*
X2939674Y267002D01*
X2419675Y267002D02*
G01*
X2939674Y267002D01*
X2419675Y-12997D02*
G01*
X2419675Y267002D01*
X2515600Y-12997D02*
G01*
X2515600Y267002D01*
X444568Y-127007D02*
G01*
X337690Y-127007D01*
X-312310Y-127411D02*
G01*
X-419188Y-127411D01*
X337690Y-242008D02*
G01*
X337690Y-12006D01*
X337690Y-12006D02*
G01*
X-312310Y-12006D01*
X-312310Y-15008D02*
G01*
X-312310Y-239006D01*
X-312310Y-242008D02*
G01*
X337690Y-242008D01*
X3111553Y-126997D02*
G01*
X3004675Y-126997D01*
X2354673Y-127401D02*
G01*
X2247795Y-127401D01*
X3004675Y-241998D02*
G01*
X3004675Y-11996D01*
X3004675Y-11996D02*
G01*
X2354673Y-11996D01*
X2354673Y-14998D02*
G01*
X2354673Y-238996D01*
X2354673Y-241998D02*
G01*
X3004675Y-241998D01*
X2247795Y2387597D02*
G01*
X2354673Y2387597D01*
X3004675Y2388001D02*
G01*
X3111553Y2388001D01*
X2354673Y2502598D02*
G01*
X2354673Y2272596D01*
X2354673Y2272596D02*
G01*
X3004675Y2272596D01*
X3004675Y2275598D02*
G01*
X3004675Y2499596D01*
X3004675Y2502598D02*
G01*
X2354673Y2502598D01*
D13*
G75*
G01*
X1015975Y1244600D02*
G02*
X1282675Y977900I0J-266700D01*
G75*
G01*
X41366Y1866900D02*
G02*
X-72654Y1914129I0J161249D01*
G75*
G01*
X193949Y1409700D02*
G02*
X14575Y1484000I0J253672D01*
G75*
G01*
X185966Y1244600D02*
G03*
X20221Y1175946I0J-234399D01*
G75*
G01*
X-149603Y1631559D02*
G02*
X-93302Y1591876I-86434J-182415D01*
G75*
G01*
X-150571Y1036833D02*
G03*
X-56578Y1099147I-106740J263049D01*
G75*
G01*
X1384275Y1866900D02*
G02*
X1689075Y1562100I0J-304800D01*
G75*
G01*
X1346175Y1409700D02*
G02*
X1485875Y1270000I0J-139700D01*
G75*
G01*
X1736928Y-251054D02*
G02*
X1689075Y-135524I115530J115529D01*
G75*
G01*
X1533728Y-543154D02*
G02*
X1485875Y-427624I115530J115529D01*
G75*
G01*
X2221342Y-735467D02*
G02*
X2273275Y-860844I-125377J-125377D01*
G75*
G01*
X1728762Y-738187D02*
G02*
X1777975Y-856996I-118808J-118810D01*
D12*
X-3651275Y2635250D02*
G01*
X-1225575Y2635250D01*
X-1225575Y1987550D01*
X-3651275Y1987550D01*
X-3651275Y2635250D01*
X-3606825Y-25400D02*
G01*
X-3352825Y-25400D01*
X-3352825Y-279400D01*
X-3606825Y-279400D01*
X-3606825Y-25400D01*
X-3098825Y-25400D02*
G01*
X-2844825Y-25400D01*
X-2844825Y-279400D01*
X-3098825Y-279400D01*
X-3098825Y-25400D01*
X-2578125Y-25400D02*
G01*
X-2324125Y-25400D01*
X-2324125Y-279400D01*
X-2578125Y-279400D01*
X-2578125Y-25400D01*
X-2578125Y-533400D02*
G01*
X-2324125Y-533400D01*
X-2324125Y-787400D01*
X-2578125Y-787400D01*
X-2578125Y-533400D01*
X-3098825Y-533400D02*
G01*
X-2844825Y-533400D01*
X-2844825Y-787400D01*
X-3098825Y-787400D01*
X-3098825Y-533400D01*
X-3606825Y-533400D02*
G01*
X-3352825Y-533400D01*
X-3352825Y-787400D01*
X-3606825Y-787400D01*
X-3606825Y-533400D01*
X-2082825Y-533400D02*
G01*
X-1828825Y-533400D01*
X-1828825Y-787400D01*
X-2082825Y-787400D01*
X-2082825Y-533400D01*
X-1562125Y-533400D02*
G01*
X-1308125Y-533400D01*
X-1308125Y-787400D01*
X-1562125Y-787400D01*
X-1562125Y-533400D01*
X-1562125Y-25400D02*
G01*
X-1308125Y-25400D01*
X-1308125Y-279400D01*
X-1562125Y-279400D01*
X-1562125Y-25400D01*
X-2082825Y-25400D02*
G01*
X-1828825Y-25400D01*
X-1828825Y-279400D01*
X-2082825Y-279400D01*
X-2082825Y-25400D01*
G36*
X-1401927Y-33197D02*
G01*
X-1315923Y-33197D01*
X-1315923Y-119202D01*
X-1401927Y-119202D01*
G37*
M02*
