G04 Layer: BottomSilkscreenLayer*
G04 EasyEDA v6.5.46, 2025-06-26 21:34:50*
G04 Gerber Generator version 0.2*
G04 Scale: 100 percent, Rotated: No, Reflected: No *
G04 Dimensions in millimeters *
G04 leading zeros omitted , absolute positions ,4 integer and 5 decimal *
%FSLAX45Y45*%
%MOMM*%

%ADD10C,0.2032*%
%ADD11C,0.1524*%
%ADD12C,0.2540*%
%ADD13C,1.0000*%

%LPD*%
G36*
X6699402Y2351735D02*
G01*
X6700418Y2348280D01*
X6860743Y1609140D01*
X6860743Y1607972D01*
X6915658Y1607972D01*
X6972960Y1859178D01*
X6974027Y1859178D01*
X7031329Y1607972D01*
X7086244Y1607972D01*
X7086244Y1609648D01*
X7149541Y2032914D01*
X7149541Y2035200D01*
X7093153Y2035048D01*
X7093203Y2033778D01*
X7053275Y1692554D01*
X7052005Y1691081D01*
X7003846Y1917598D01*
X6943496Y1917039D01*
X6894880Y1690065D01*
X6893864Y1690065D01*
X6755892Y2351735D01*
G37*
G36*
X6569964Y2244902D02*
G01*
X6569964Y1414170D01*
X8369960Y1414170D01*
X8369960Y2244902D01*
X6889292Y2244902D01*
X6890410Y2171750D01*
X8296757Y2171750D01*
X8296757Y1488338D01*
X6643471Y1488338D01*
X6642150Y1866595D01*
X6642150Y2244902D01*
G37*
G36*
X7659319Y2042160D02*
G01*
X7634630Y2039112D01*
X7609890Y2034184D01*
X7595057Y2030120D01*
X7564932Y2020316D01*
X7564932Y1962048D01*
X7565847Y1962048D01*
X7578750Y1969973D01*
X7596073Y1978609D01*
X7618831Y1987550D01*
X7639558Y1992680D01*
X7653426Y1994611D01*
X7674203Y1995932D01*
X7696200Y1993696D01*
X7711795Y1989683D01*
X7726425Y1982774D01*
X7738668Y1974037D01*
X7748422Y1963369D01*
X7754874Y1951278D01*
X7758734Y1936038D01*
X7758734Y1913077D01*
X7755788Y1900580D01*
X7750454Y1889658D01*
X7742681Y1880870D01*
X7731556Y1873300D01*
X7721549Y1868271D01*
X7701838Y1861413D01*
X7636611Y1845462D01*
X7615834Y1838248D01*
X7595616Y1828393D01*
X7580985Y1818843D01*
X7566812Y1805482D01*
X7556906Y1792427D01*
X7548270Y1774647D01*
X7544257Y1760778D01*
X7540752Y1742998D01*
X7540752Y1709369D01*
X7543241Y1691995D01*
X7548219Y1674774D01*
X7555026Y1659280D01*
X7563256Y1647037D01*
X7574330Y1634337D01*
X7591145Y1621840D01*
X7608925Y1613103D01*
X7622641Y1607921D01*
X7637627Y1604213D01*
X7658353Y1600555D01*
X7714742Y1600555D01*
X7732572Y1603248D01*
X7761224Y1609090D01*
X7782001Y1615135D01*
X7809179Y1625244D01*
X7809179Y1687118D01*
X7793583Y1677314D01*
X7761731Y1661414D01*
X7735519Y1652676D01*
X7716723Y1648663D01*
X7695946Y1646275D01*
X7666278Y1647494D01*
X7648448Y1651355D01*
X7634630Y1656537D01*
X7620812Y1664665D01*
X7607757Y1678076D01*
X7599730Y1693519D01*
X7596530Y1705406D01*
X7595362Y1726184D01*
X7597597Y1741982D01*
X7601813Y1754835D01*
X7608620Y1765757D01*
X7614869Y1772361D01*
X7626248Y1780184D01*
X7640421Y1786940D01*
X7661351Y1793697D01*
X7710779Y1805025D01*
X7732572Y1811629D01*
X7754569Y1820316D01*
X7775092Y1832559D01*
X7788351Y1843887D01*
X7799374Y1857705D01*
X7808163Y1875536D01*
X7813395Y1895297D01*
X7814411Y1927961D01*
X7811008Y1949704D01*
X7805978Y1965502D01*
X7798308Y1980844D01*
X7791043Y1992223D01*
X7769148Y2014169D01*
X7754721Y2023414D01*
X7740548Y2030526D01*
X7717739Y2037994D01*
X7697927Y2041143D01*
X7691018Y2041855D01*
G37*
G36*
X8047075Y2042007D02*
G01*
X8005521Y2041347D01*
X7985759Y2036368D01*
X7971891Y2031136D01*
X7959039Y2024176D01*
X7946542Y2015286D01*
X7932877Y2001469D01*
X7923936Y1989582D01*
X7912963Y1970227D01*
X7905038Y1950821D01*
X7898180Y1927199D01*
X7892440Y1896313D01*
X7889341Y1869490D01*
X7887186Y1820621D01*
X7948269Y1820621D01*
X7948269Y1857705D01*
X7951673Y1894332D01*
X7954670Y1915058D01*
X7961477Y1941118D01*
X7967370Y1955952D01*
X7975853Y1970176D01*
X7991348Y1984959D01*
X8007858Y1992884D01*
X8026298Y1995678D01*
X8037169Y1995424D01*
X8048955Y1993696D01*
X8061553Y1989531D01*
X8076133Y1979777D01*
X8085632Y1969160D01*
X8093709Y1955647D01*
X8099044Y1942236D01*
X8104936Y1920036D01*
X8108746Y1897278D01*
X8110880Y1875536D01*
X8112810Y1842871D01*
X8112810Y1799386D01*
X8110880Y1766722D01*
X8108746Y1744980D01*
X8104936Y1722221D01*
X8099044Y1700022D01*
X8093709Y1686610D01*
X8085632Y1673098D01*
X8076133Y1662480D01*
X8061553Y1652727D01*
X8049056Y1648663D01*
X8036661Y1646326D01*
X8016392Y1647342D01*
X8005064Y1650492D01*
X7992160Y1656740D01*
X7980883Y1665833D01*
X7972501Y1676704D01*
X7963712Y1694535D01*
X7958581Y1710334D01*
X7954772Y1727149D01*
X7951673Y1746961D01*
X7948320Y1783537D01*
X7948269Y1820621D01*
X7887186Y1820621D01*
X7889392Y1771650D01*
X7892389Y1745945D01*
X7898333Y1714296D01*
X7904327Y1693519D01*
X7912150Y1673758D01*
X7920126Y1658924D01*
X7930642Y1643075D01*
X7946593Y1626920D01*
X7961020Y1616710D01*
X7974431Y1609902D01*
X7991856Y1604060D01*
X8005521Y1600962D01*
X8043113Y1599844D01*
X8060537Y1602130D01*
X8078927Y1606905D01*
X8096656Y1614627D01*
X8112048Y1624990D01*
X8126984Y1639163D01*
X8138515Y1654606D01*
X8147303Y1670812D01*
X8154517Y1687626D01*
X8162188Y1713331D01*
X8167065Y1738071D01*
X8170214Y1760728D01*
X8173161Y1799386D01*
X8173110Y1843887D01*
X8170265Y1879752D01*
X8168131Y1897278D01*
X8163204Y1923999D01*
X8156397Y1948688D01*
X8150555Y1963775D01*
X8140293Y1984298D01*
X8126933Y2003094D01*
X8112353Y2016963D01*
X8098485Y2026107D01*
X8084616Y2033016D01*
X8065820Y2038959D01*
G37*
G36*
X7404709Y2035251D02*
G01*
X7404709Y1860194D01*
X7246467Y1860194D01*
X7246467Y2035200D01*
X7188098Y2035200D01*
X7188098Y1607972D01*
X7246467Y1607972D01*
X7246467Y1810715D01*
X7404709Y1810715D01*
X7404709Y1607972D01*
X7463028Y1607972D01*
X7463028Y2035251D01*
G37*
G36*
X7793888Y1340459D02*
G01*
X7776108Y1338935D01*
X7761224Y1333855D01*
X7748371Y1326286D01*
X7736941Y1314958D01*
X7728051Y1301546D01*
X7721904Y1288034D01*
X7717180Y1273606D01*
X7715097Y1264310D01*
X7712202Y1248460D01*
X7709357Y1214882D01*
X7709357Y1194104D01*
X7710575Y1180236D01*
X7745425Y1180236D01*
X7745475Y1230680D01*
X7747965Y1251458D01*
X7749946Y1262329D01*
X7754010Y1278178D01*
X7760665Y1292656D01*
X7767624Y1302156D01*
X7778038Y1309268D01*
X7787944Y1312265D01*
X7800797Y1312164D01*
X7809128Y1309522D01*
X7817713Y1304493D01*
X7825892Y1295654D01*
X7831226Y1285138D01*
X7835900Y1272641D01*
X7839659Y1255420D01*
X7842351Y1237589D01*
X7842250Y1171346D01*
X7838795Y1149604D01*
X7834985Y1134160D01*
X7830159Y1122324D01*
X7823555Y1111300D01*
X7814106Y1102766D01*
X7804759Y1098143D01*
X7783982Y1098143D01*
X7772552Y1103782D01*
X7763002Y1113485D01*
X7756753Y1125220D01*
X7753603Y1133754D01*
X7750809Y1143660D01*
X7747965Y1158494D01*
X7745425Y1180236D01*
X7710575Y1180236D01*
X7712303Y1160576D01*
X7717180Y1136548D01*
X7723327Y1118920D01*
X7731201Y1103274D01*
X7739938Y1091946D01*
X7751368Y1081836D01*
X7764221Y1075080D01*
X7779054Y1070457D01*
X7810703Y1070559D01*
X7826502Y1075842D01*
X7839100Y1083310D01*
X7851698Y1095756D01*
X7857693Y1104493D01*
X7865770Y1120495D01*
X7871409Y1138174D01*
X7874609Y1153515D01*
X7877556Y1173327D01*
X7878673Y1220063D01*
X7876286Y1246530D01*
X7873492Y1263345D01*
X7871307Y1272235D01*
X7865465Y1290370D01*
X7856981Y1307033D01*
X7848904Y1317904D01*
X7837373Y1328064D01*
X7824520Y1334871D01*
X7811211Y1339138D01*
G37*
G36*
X7578242Y1340459D02*
G01*
X7560767Y1338986D01*
X7549591Y1335227D01*
X7541717Y1331823D01*
X7532776Y1325829D01*
X7523175Y1316736D01*
X7515859Y1306830D01*
X7509814Y1295958D01*
X7504734Y1283106D01*
X7499858Y1266291D01*
X7495794Y1241552D01*
X7493711Y1204874D01*
X7494045Y1199032D01*
X7529017Y1199032D01*
X7530287Y1230884D01*
X7532420Y1251458D01*
X7536434Y1271168D01*
X7541412Y1285087D01*
X7545374Y1293012D01*
X7552385Y1302308D01*
X7560919Y1308404D01*
X7572146Y1312265D01*
X7585202Y1312164D01*
X7593075Y1309624D01*
X7599629Y1306220D01*
X7607757Y1298905D01*
X7614005Y1289050D01*
X7619288Y1276197D01*
X7623149Y1261364D01*
X7626350Y1240485D01*
X7627721Y1205941D01*
X7626299Y1169365D01*
X7623149Y1149604D01*
X7619390Y1134313D01*
X7614056Y1120902D01*
X7607757Y1110945D01*
X7598359Y1102715D01*
X7589164Y1098143D01*
X7568387Y1098143D01*
X7557312Y1103579D01*
X7546340Y1115060D01*
X7541107Y1125372D01*
X7535367Y1142644D01*
X7531455Y1165402D01*
X7529017Y1199032D01*
X7494045Y1199032D01*
X7495743Y1169365D01*
X7498740Y1149604D01*
X7503515Y1130604D01*
X7508290Y1117904D01*
X7514691Y1105103D01*
X7524496Y1091844D01*
X7535722Y1082090D01*
X7548575Y1075080D01*
X7563408Y1070457D01*
X7595057Y1070559D01*
X7610906Y1075842D01*
X7623556Y1083310D01*
X7636865Y1096467D01*
X7645908Y1110996D01*
X7651902Y1125118D01*
X7657744Y1145641D01*
X7660792Y1164437D01*
X7662824Y1184910D01*
X7662824Y1226718D01*
X7659827Y1253439D01*
X7655763Y1272895D01*
X7651242Y1287170D01*
X7643063Y1304544D01*
X7634173Y1316990D01*
X7622082Y1328013D01*
X7606944Y1335786D01*
X7595057Y1339189D01*
G37*
G36*
X7362647Y1340459D02*
G01*
X7346391Y1339088D01*
X7336840Y1336243D01*
X7326071Y1331722D01*
X7317181Y1325676D01*
X7308494Y1317701D01*
X7300214Y1306830D01*
X7294219Y1295958D01*
X7287971Y1279652D01*
X7283094Y1260348D01*
X7279640Y1238605D01*
X7279589Y1195730D01*
X7313726Y1195730D01*
X7313726Y1214882D01*
X7316622Y1250442D01*
X7318756Y1261364D01*
X7321803Y1274216D01*
X7326325Y1286205D01*
X7330694Y1294739D01*
X7339888Y1304645D01*
X7346848Y1308963D01*
X7356602Y1312265D01*
X7370572Y1312113D01*
X7379462Y1308811D01*
X7385456Y1305509D01*
X7394448Y1295908D01*
X7399985Y1286510D01*
X7404963Y1272235D01*
X7407605Y1261110D01*
X7410602Y1241552D01*
X7412685Y1205534D01*
X7410602Y1168400D01*
X7407503Y1148588D01*
X7402575Y1129792D01*
X7395464Y1114958D01*
X7383068Y1102563D01*
X7373518Y1098143D01*
X7352792Y1098143D01*
X7343444Y1102461D01*
X7333589Y1111707D01*
X7327544Y1121105D01*
X7322566Y1133348D01*
X7319568Y1144625D01*
X7316673Y1159459D01*
X7313726Y1195730D01*
X7279589Y1195730D01*
X7279589Y1171346D01*
X7283145Y1150569D01*
X7287056Y1133754D01*
X7291171Y1121867D01*
X7298994Y1105103D01*
X7309815Y1090930D01*
X7320229Y1081989D01*
X7332980Y1075080D01*
X7347813Y1070457D01*
X7378496Y1070457D01*
X7393279Y1075131D01*
X7402271Y1079652D01*
X7414514Y1088898D01*
X7426147Y1103325D01*
X7435342Y1122121D01*
X7441031Y1140663D01*
X7444282Y1157478D01*
X7446416Y1171346D01*
X7447432Y1225753D01*
X7444181Y1254404D01*
X7439101Y1277112D01*
X7434122Y1291031D01*
X7427163Y1304848D01*
X7421118Y1313738D01*
X7412228Y1323238D01*
X7402728Y1330248D01*
X7391349Y1335735D01*
X7380427Y1339138D01*
G37*
G36*
X7160920Y1339850D02*
G01*
X7130237Y1339240D01*
X7117384Y1334820D01*
X7104176Y1327962D01*
X7092137Y1316990D01*
X7083501Y1304848D01*
X7076338Y1290624D01*
X7070598Y1273200D01*
X7066635Y1254404D01*
X7063994Y1236624D01*
X7063994Y1202893D01*
X7097877Y1202893D01*
X7099147Y1226718D01*
X7101179Y1250442D01*
X7105802Y1273200D01*
X7111034Y1287018D01*
X7116216Y1295857D01*
X7124293Y1304645D01*
X7131253Y1308963D01*
X7140956Y1312265D01*
X7154976Y1312113D01*
X7163866Y1308811D01*
X7169810Y1305509D01*
X7178954Y1295958D01*
X7184034Y1287018D01*
X7188860Y1274216D01*
X7191959Y1261364D01*
X7194092Y1249476D01*
X7196988Y1214882D01*
X7196988Y1195730D01*
X7194042Y1159459D01*
X7189266Y1136548D01*
X7183374Y1121410D01*
X7177125Y1111707D01*
X7167270Y1102461D01*
X7157923Y1098143D01*
X7137146Y1098143D01*
X7127646Y1102563D01*
X7115251Y1114958D01*
X7108139Y1129792D01*
X7103160Y1148588D01*
X7100214Y1167384D01*
X7097877Y1202893D01*
X7063994Y1202893D01*
X7063994Y1173327D01*
X7066635Y1156512D01*
X7069480Y1141679D01*
X7075373Y1122578D01*
X7081215Y1109472D01*
X7090206Y1095654D01*
X7102754Y1083310D01*
X7115403Y1075842D01*
X7131253Y1070559D01*
X7162901Y1070457D01*
X7177633Y1075080D01*
X7188758Y1080719D01*
X7200747Y1090726D01*
X7211618Y1105103D01*
X7218730Y1119327D01*
X7224522Y1136751D01*
X7228484Y1155496D01*
X7231125Y1173327D01*
X7231125Y1236624D01*
X7228586Y1254404D01*
X7225588Y1269238D01*
X7221524Y1283106D01*
X7215886Y1297279D01*
X7207402Y1311656D01*
X7195566Y1324356D01*
X7184542Y1331874D01*
X7172756Y1336649D01*
X7164882Y1338935D01*
G37*
G36*
X6945274Y1339850D02*
G01*
X6914642Y1339240D01*
X6900316Y1334160D01*
X6888378Y1327810D01*
X6875932Y1316431D01*
X6866534Y1302359D01*
X6859930Y1288034D01*
X6855002Y1273200D01*
X6850989Y1253439D01*
X6848398Y1234643D01*
X6848398Y1204264D01*
X6882688Y1204264D01*
X6884466Y1240586D01*
X6887565Y1261364D01*
X6891426Y1276197D01*
X6896709Y1289050D01*
X6902958Y1298905D01*
X6911441Y1306576D01*
X6922566Y1311656D01*
X6939381Y1312265D01*
X6949643Y1308658D01*
X6956552Y1303375D01*
X6963562Y1295958D01*
X6969302Y1285087D01*
X6974433Y1270812D01*
X6978497Y1250442D01*
X6981393Y1216863D01*
X6981393Y1193088D01*
X6978497Y1159459D01*
X6974433Y1139139D01*
X6969353Y1124864D01*
X6962749Y1112926D01*
X6951725Y1102512D01*
X6942328Y1098143D01*
X6921550Y1098143D01*
X6912356Y1102715D01*
X6902907Y1110996D01*
X6895490Y1122527D01*
X6890410Y1137716D01*
X6887616Y1148588D01*
X6884517Y1169365D01*
X6882688Y1204264D01*
X6848398Y1204264D01*
X6848398Y1174292D01*
X6851903Y1150924D01*
X6857492Y1128776D01*
X6863791Y1113078D01*
X6873087Y1097381D01*
X6887159Y1083310D01*
X6899808Y1075842D01*
X6915607Y1070762D01*
X6942429Y1069746D01*
X6959142Y1073962D01*
X6973011Y1080566D01*
X6983374Y1088796D01*
X6994194Y1101953D01*
X7002221Y1117346D01*
X7007199Y1130604D01*
X7011974Y1149604D01*
X7015175Y1170381D01*
X7016496Y1205585D01*
X7015175Y1240586D01*
X7010857Y1266291D01*
X7005980Y1283106D01*
X7000849Y1295958D01*
X6993890Y1308608D01*
X6984847Y1319834D01*
X6976973Y1326845D01*
X6966915Y1332992D01*
X6953199Y1338173D01*
G37*
G36*
X8323122Y1336040D02*
G01*
X8126171Y1335532D01*
X8125612Y1306322D01*
X8206790Y1306322D01*
X8206790Y1074928D01*
X8242350Y1074928D01*
X8242858Y1305864D01*
X8324494Y1306372D01*
X8324494Y1334719D01*
G37*
G36*
X7903260Y1336040D02*
G01*
X7902143Y1334160D01*
X7936788Y1101140D01*
X7940903Y1074928D01*
X7974330Y1074928D01*
X8006638Y1216355D01*
X8009128Y1226210D01*
X8010702Y1226210D01*
X8044586Y1076401D01*
X8044586Y1074928D01*
X8078063Y1074928D01*
X8079079Y1078382D01*
X8116773Y1331569D01*
X8116773Y1336040D01*
X8083854Y1335532D01*
X8082330Y1332534D01*
X8080095Y1310792D01*
X8058353Y1128318D01*
X8056829Y1128318D01*
X8054390Y1140663D01*
X8028279Y1263345D01*
X7991195Y1263853D01*
X7991195Y1262938D01*
X7977378Y1199032D01*
X7967370Y1151585D01*
X7964678Y1139698D01*
X7962138Y1126286D01*
X7960563Y1129030D01*
X7936484Y1334516D01*
X7934299Y1335989D01*
G37*
G36*
X6799478Y1336040D02*
G01*
X6635851Y1335532D01*
X6636156Y1319631D01*
X6728764Y1075385D01*
X6765747Y1074877D01*
X6675526Y1304493D01*
X6677355Y1306322D01*
X6799935Y1306830D01*
X6800443Y1333449D01*
G37*
G36*
X7583220Y1229258D02*
G01*
X7570774Y1228445D01*
X7562900Y1223213D01*
X7557160Y1215237D01*
X7555179Y1205941D01*
X7556957Y1196543D01*
X7561884Y1189228D01*
X7570012Y1183792D01*
X7578750Y1182471D01*
X7587386Y1183792D01*
X7596276Y1189431D01*
X7601508Y1199896D01*
X7601508Y1211427D01*
X7597495Y1219962D01*
X7590891Y1226362D01*
G37*
G36*
X7790891Y1229207D02*
G01*
X7783322Y1227074D01*
X7775448Y1219962D01*
X7771892Y1212900D01*
X7770571Y1205738D01*
X7772704Y1195832D01*
X7778648Y1187754D01*
X7789468Y1182471D01*
X7801864Y1183436D01*
X7807756Y1186484D01*
X7813446Y1192123D01*
X7817053Y1200048D01*
X7817103Y1210919D01*
X7812430Y1220927D01*
X7804759Y1227277D01*
X7798816Y1229004D01*
G37*
G36*
X7359700Y1229207D02*
G01*
X7352639Y1227226D01*
X7344562Y1220317D01*
X7340244Y1211427D01*
X7340295Y1199642D01*
X7344156Y1192072D01*
X7349744Y1186484D01*
X7355636Y1183436D01*
X7368031Y1182471D01*
X7378801Y1187704D01*
X7383475Y1194104D01*
X7385913Y1199642D01*
X7385913Y1211783D01*
X7381951Y1219911D01*
X7375245Y1226362D01*
X7367625Y1229106D01*
G37*
G36*
X7144105Y1229207D02*
G01*
X7137044Y1227226D01*
X7129018Y1220368D01*
X7124801Y1211427D01*
X7124852Y1200048D01*
X7128509Y1192022D01*
X7137044Y1184706D01*
X7144105Y1182725D01*
X7152995Y1182725D01*
X7162901Y1187348D01*
X7168337Y1194460D01*
X7170420Y1199946D01*
X7170470Y1211427D01*
X7166356Y1219911D01*
X7159650Y1226362D01*
X7151979Y1229106D01*
G37*
G36*
X6927494Y1229207D02*
G01*
X6917486Y1224534D01*
X6911543Y1216863D01*
X6908952Y1210411D01*
X6909765Y1197610D01*
X6915708Y1189177D01*
X6923786Y1183487D01*
X6936638Y1182471D01*
X6947509Y1187399D01*
X6952589Y1194104D01*
X6954875Y1200048D01*
X6954926Y1211986D01*
X6950913Y1219809D01*
X6944055Y1226362D01*
X6936384Y1229106D01*
G37*
G36*
X5723432Y6787489D02*
G01*
X5675680Y6786778D01*
X5676290Y6782816D01*
X5743854Y6471259D01*
X5811672Y6157061D01*
X5813094Y6152388D01*
X5859018Y6152388D01*
X5863285Y6170320D01*
X5904484Y6350609D01*
X5907328Y6363868D01*
X5909157Y6367272D01*
X5957925Y6152388D01*
X6004509Y6152438D01*
X6014516Y6220714D01*
X6058204Y6512204D01*
X6058204Y6516979D01*
X6010452Y6516979D01*
X6010554Y6514998D01*
X5976823Y6227318D01*
X5975146Y6225286D01*
X5962548Y6285636D01*
X5934456Y6417564D01*
X5883300Y6417208D01*
X5841441Y6222847D01*
X5840476Y6223812D01*
G37*
G36*
X5564987Y6695948D02*
G01*
X5564987Y5987999D01*
X7098893Y5987999D01*
X7098893Y6695948D01*
X5836767Y6695948D01*
X5836767Y6633667D01*
X7035241Y6633667D01*
X7035241Y6051651D01*
X5627624Y6050889D01*
X5625642Y6695948D01*
G37*
G36*
X4661509Y6542176D02*
G01*
X4641545Y6538366D01*
X4621733Y6531356D01*
X4603750Y6520637D01*
X4585360Y6502450D01*
X4574336Y6486144D01*
X4563008Y6461963D01*
X4556302Y6441694D01*
X4552188Y6424879D01*
X4548124Y6402324D01*
X4544161Y6361226D01*
X4544161Y6306566D01*
X4545844Y6289649D01*
X4599178Y6289649D01*
X4599178Y6378448D01*
X4602683Y6406286D01*
X4607915Y6432804D01*
X4613249Y6450025D01*
X4624882Y6474104D01*
X4639411Y6488887D01*
X4657394Y6497726D01*
X4685385Y6498386D01*
X4696561Y6494780D01*
X4708144Y6487972D01*
X4722469Y6472478D01*
X4731054Y6456375D01*
X4738928Y6432296D01*
X4744466Y6403644D01*
X4748326Y6359906D01*
X4748326Y6308191D01*
X4744364Y6265367D01*
X4738928Y6237122D01*
X4731054Y6213043D01*
X4722926Y6197752D01*
X4711852Y6184646D01*
X4700727Y6176060D01*
X4686757Y6170777D01*
X4656175Y6171641D01*
X4641037Y6179058D01*
X4625289Y6194958D01*
X4616043Y6212738D01*
X4608931Y6232601D01*
X4602734Y6263132D01*
X4599178Y6289649D01*
X4545844Y6289649D01*
X4548225Y6265773D01*
X4554778Y6233261D01*
X4563008Y6207455D01*
X4574387Y6183579D01*
X4584242Y6168999D01*
X4601819Y6150864D01*
X4616551Y6140704D01*
X4627016Y6136233D01*
X4641596Y6131052D01*
X4664151Y6127292D01*
X4684014Y6127292D01*
X4705248Y6131052D01*
X4719828Y6136233D01*
X4731766Y6141720D01*
X4743399Y6149543D01*
X4757978Y6163665D01*
X4769866Y6179159D01*
X4782820Y6204610D01*
X4790490Y6228638D01*
X4796282Y6253835D01*
X4798720Y6268415D01*
X4802682Y6310833D01*
X4802682Y6359906D01*
X4799990Y6389065D01*
X4797094Y6411620D01*
X4790948Y6440779D01*
X4781296Y6468618D01*
X4769205Y6491122D01*
X4761534Y6502349D01*
X4744821Y6519011D01*
X4727549Y6530289D01*
X4705248Y6538569D01*
X4688027Y6541820D01*
G37*
G36*
X4331411Y6542176D02*
G01*
X4311497Y6538315D01*
X4296918Y6533184D01*
X4286453Y6528663D01*
X4270705Y6517995D01*
X4254703Y6501739D01*
X4244340Y6485839D01*
X4232960Y6461963D01*
X4226102Y6440779D01*
X4222140Y6424879D01*
X4217924Y6401003D01*
X4214063Y6359906D01*
X4214063Y6308191D01*
X4215645Y6292291D01*
X4269079Y6292291D01*
X4269079Y6375806D01*
X4272584Y6404965D01*
X4276394Y6426200D01*
X4283252Y6450025D01*
X4291888Y6468618D01*
X4302302Y6482384D01*
X4312818Y6490817D01*
X4327398Y6497675D01*
X4356557Y6498386D01*
X4366006Y6494780D01*
X4376470Y6489446D01*
X4389729Y6476136D01*
X4398772Y6461099D01*
X4407865Y6436969D01*
X4414012Y6406286D01*
X4417517Y6377127D01*
X4417568Y6292291D01*
X4414113Y6264452D01*
X4410252Y6243218D01*
X4403394Y6219342D01*
X4394758Y6200800D01*
X4383735Y6186271D01*
X4371136Y6176264D01*
X4357116Y6170980D01*
X4329480Y6170980D01*
X4315460Y6176264D01*
X4302912Y6186271D01*
X4291888Y6200800D01*
X4283252Y6219342D01*
X4276394Y6243218D01*
X4272534Y6264452D01*
X4269079Y6292291D01*
X4215645Y6292291D01*
X4217974Y6268415D01*
X4220464Y6253835D01*
X4224883Y6232601D01*
X4233926Y6204559D01*
X4246880Y6179159D01*
X4258868Y6163665D01*
X4273042Y6150051D01*
X4284929Y6141669D01*
X4296918Y6136233D01*
X4311497Y6131052D01*
X4334052Y6127292D01*
X4353915Y6127292D01*
X4375353Y6131052D01*
X4397451Y6139129D01*
X4413758Y6149746D01*
X4431487Y6167678D01*
X4440834Y6180836D01*
X4453737Y6207455D01*
X4460494Y6228638D01*
X4464507Y6244539D01*
X4468723Y6268415D01*
X4472584Y6308191D01*
X4472584Y6361226D01*
X4468622Y6402324D01*
X4464608Y6424879D01*
X4461662Y6436766D01*
X4455007Y6459321D01*
X4442460Y6486093D01*
X4431030Y6503060D01*
X4414418Y6519468D01*
X4398975Y6529324D01*
X4381754Y6536334D01*
X4371136Y6539382D01*
X4359249Y6541871D01*
G37*
G36*
X4001262Y6542176D02*
G01*
X3981399Y6538315D01*
X3966768Y6533235D01*
X3952240Y6525920D01*
X3941622Y6518605D01*
X3928262Y6505702D01*
X3916578Y6489903D01*
X3904030Y6465316D01*
X3896004Y6440779D01*
X3892092Y6423507D01*
X3889400Y6410248D01*
X3887876Y6400698D01*
X3883964Y6358585D01*
X3883964Y6312052D01*
X3938320Y6312052D01*
X3938320Y6357518D01*
X3940962Y6391706D01*
X3945128Y6420866D01*
X3951732Y6445859D01*
X3958488Y6462725D01*
X3968394Y6477863D01*
X3982110Y6490665D01*
X3997299Y6497675D01*
X4026458Y6498386D01*
X4035907Y6494780D01*
X4046880Y6489141D01*
X4061815Y6473901D01*
X4073347Y6450025D01*
X4078732Y6432804D01*
X4083964Y6406286D01*
X4087469Y6378448D01*
X4087368Y6288278D01*
X4082745Y6255461D01*
X4077563Y6232347D01*
X4070604Y6212738D01*
X4061358Y6194958D01*
X4045610Y6179058D01*
X4030421Y6171641D01*
X4000550Y6170726D01*
X3988765Y6174740D01*
X3976471Y6183223D01*
X3968394Y6191504D01*
X3958285Y6207048D01*
X3950512Y6227318D01*
X3944823Y6250736D01*
X3941064Y6276390D01*
X3938320Y6312052D01*
X3883964Y6312052D01*
X3887825Y6269736D01*
X3891940Y6245860D01*
X3896106Y6228638D01*
X3904081Y6204762D01*
X3916883Y6179210D01*
X3929075Y6163208D01*
X3946906Y6146850D01*
X3965498Y6136487D01*
X3982720Y6130899D01*
X4003903Y6127292D01*
X4023817Y6127242D01*
X4045000Y6131001D01*
X4057751Y6135319D01*
X4069587Y6140399D01*
X4085082Y6150965D01*
X4101490Y6167374D01*
X4112310Y6183223D01*
X4123893Y6207760D01*
X4130548Y6228638D01*
X4134408Y6244539D01*
X4138574Y6267094D01*
X4142435Y6306870D01*
X4142435Y6363868D01*
X4138574Y6402324D01*
X4134408Y6426200D01*
X4129176Y6446723D01*
X4122267Y6465976D01*
X4112056Y6486550D01*
X4100880Y6503060D01*
X4084320Y6519468D01*
X4068876Y6529324D01*
X4051655Y6536334D01*
X4041038Y6539382D01*
X4029100Y6541871D01*
G37*
G36*
X3671163Y6542176D02*
G01*
X3651250Y6538315D01*
X3636010Y6533032D01*
X3617874Y6523532D01*
X3602888Y6510832D01*
X3587140Y6491122D01*
X3572662Y6461963D01*
X3564737Y6435445D01*
X3561994Y6423507D01*
X3559301Y6408928D01*
X3557778Y6399377D01*
X3553866Y6357213D01*
X3553866Y6313627D01*
X3608171Y6313627D01*
X3608171Y6356045D01*
X3610864Y6391706D01*
X3615029Y6419545D01*
X3620262Y6440779D01*
X3625545Y6455105D01*
X3633825Y6472326D01*
X3649167Y6488684D01*
X3667048Y6497777D01*
X3696360Y6498539D01*
X3711803Y6491986D01*
X3722319Y6484721D01*
X3733088Y6471259D01*
X3741724Y6454038D01*
X3748582Y6433515D01*
X3752697Y6413754D01*
X3757269Y6383731D01*
X3757218Y6285636D01*
X3752697Y6255664D01*
X3748582Y6235801D01*
X3740353Y6211417D01*
X3733749Y6199479D01*
X3724351Y6186525D01*
X3708958Y6175146D01*
X3695649Y6170726D01*
X3665880Y6171641D01*
X3652621Y6178092D01*
X3633825Y6196838D01*
X3624021Y6216700D01*
X3616045Y6244539D01*
X3610965Y6276390D01*
X3608171Y6313627D01*
X3553866Y6313627D01*
X3553866Y6312154D01*
X3557778Y6271056D01*
X3560267Y6255156D01*
X3563061Y6241186D01*
X3567226Y6224676D01*
X3574135Y6204762D01*
X3585972Y6180937D01*
X3597757Y6164427D01*
X3616706Y6146901D01*
X3635349Y6136487D01*
X3652621Y6131001D01*
X3673805Y6127242D01*
X3693718Y6127242D01*
X3714902Y6131001D01*
X3727602Y6135319D01*
X3738829Y6140145D01*
X3753815Y6149746D01*
X3771239Y6167120D01*
X3781501Y6182258D01*
X3790746Y6200800D01*
X3797808Y6218529D01*
X3804310Y6243218D01*
X3808476Y6267094D01*
X3812336Y6303822D01*
X3812336Y6365189D01*
X3808374Y6404457D01*
X3801414Y6439458D01*
X3792321Y6465976D01*
X3780332Y6489801D01*
X3765092Y6509715D01*
X3747312Y6524650D01*
X3728161Y6533997D01*
X3710940Y6539382D01*
X3699001Y6541871D01*
G37*
G36*
X3341065Y6542176D02*
G01*
X3321151Y6538315D01*
X3305403Y6532880D01*
X3288080Y6523329D01*
X3281375Y6518198D01*
X3267151Y6504381D01*
X3255772Y6488480D01*
X3243935Y6464604D01*
X3237128Y6444742D01*
X3233115Y6428841D01*
X3229254Y6408928D01*
X3227527Y6396990D01*
X3223768Y6354572D01*
X3223768Y6315710D01*
X3278073Y6315710D01*
X3278073Y6353708D01*
X3282137Y6403644D01*
X3288639Y6435852D01*
X3295650Y6455359D01*
X3304844Y6473748D01*
X3319221Y6488785D01*
X3336950Y6497777D01*
X3366262Y6498539D01*
X3381705Y6491986D01*
X3392576Y6484518D01*
X3403752Y6470243D01*
X3412337Y6452717D01*
X3418382Y6434124D01*
X3423716Y6407607D01*
X3426714Y6385102D01*
X3428542Y6336030D01*
X3426714Y6284315D01*
X3423716Y6261811D01*
X3418433Y6235293D01*
X3410458Y6211417D01*
X3399536Y6192824D01*
X3386124Y6179413D01*
X3370224Y6171641D01*
X3335731Y6171641D01*
X3322472Y6178092D01*
X3303778Y6196838D01*
X3294227Y6216700D01*
X3287522Y6238138D01*
X3282086Y6266484D01*
X3278073Y6315710D01*
X3223768Y6315710D01*
X3227578Y6271056D01*
X3231896Y6245860D01*
X3238398Y6221222D01*
X3245256Y6202121D01*
X3254552Y6183579D01*
X3265322Y6167678D01*
X3278733Y6153404D01*
X3294634Y6142126D01*
X3307892Y6135471D01*
X3322472Y6131052D01*
X3343706Y6127242D01*
X3363569Y6127242D01*
X3384854Y6130950D01*
X3404565Y6137859D01*
X3423056Y6149035D01*
X3440582Y6166307D01*
X3451860Y6182918D01*
X3462223Y6203442D01*
X3471519Y6231280D01*
X3478276Y6264706D01*
X3482238Y6302502D01*
X3482238Y6366865D01*
X3478174Y6406286D01*
X3471621Y6438087D01*
X3462223Y6466281D01*
X3450132Y6489801D01*
X3438550Y6506108D01*
X3421938Y6521196D01*
X3404666Y6531457D01*
X3382162Y6539230D01*
X3368903Y6541820D01*
G37*
G36*
X5180482Y6534251D02*
G01*
X5181193Y6489801D01*
X5304332Y6489141D01*
X5306466Y6485839D01*
X5306415Y6135827D01*
X5359552Y6135827D01*
X5359501Y6484874D01*
X5361127Y6489141D01*
X5485434Y6489141D01*
X5485434Y6534251D01*
G37*
G36*
X4838496Y6534251D02*
G01*
X4838496Y6533134D01*
X4846675Y6479235D01*
X4848860Y6463284D01*
X4859680Y6390386D01*
X4864963Y6357213D01*
X4876952Y6275019D01*
X4882235Y6241897D01*
X4896967Y6141161D01*
X4898186Y6135166D01*
X4948377Y6135166D01*
X4949748Y6137402D01*
X5001615Y6364884D01*
X5004054Y6369151D01*
X5005374Y6365189D01*
X5023764Y6282994D01*
X5057546Y6135166D01*
X5108600Y6135166D01*
X5167426Y6529578D01*
X5168798Y6534251D01*
X5115712Y6534251D01*
X5114442Y6525615D01*
X5086400Y6288278D01*
X5079746Y6229959D01*
X5078272Y6218783D01*
X5075885Y6217259D01*
X5059781Y6293612D01*
X5057343Y6304229D01*
X5031892Y6423964D01*
X5027879Y6425539D01*
X4976317Y6425539D01*
X4973980Y6419545D01*
X4968341Y6391706D01*
X4965852Y6381089D01*
X4930648Y6216040D01*
X4928870Y6216040D01*
X4927295Y6225997D01*
X4891582Y6529578D01*
X4891532Y6534251D01*
G37*
G36*
X2899562Y6534251D02*
G01*
X2900426Y6509715D01*
X3031744Y6163665D01*
X3042361Y6135166D01*
X3097784Y6135166D01*
X3097784Y6138214D01*
X2961233Y6485483D01*
X2961233Y6489141D01*
X3150819Y6489141D01*
X3150819Y6534251D01*
G37*
G36*
X6806590Y6523583D02*
G01*
X6781596Y6520942D01*
X6762800Y6515354D01*
X6749542Y6508699D01*
X6738975Y6501434D01*
X6723837Y6485839D01*
X6715252Y6473901D01*
X6704075Y6451346D01*
X6697472Y6430162D01*
X6692138Y6403644D01*
X6689242Y6383731D01*
X6686651Y6332321D01*
X6687802Y6312154D01*
X6738366Y6312154D01*
X6738366Y6355892D01*
X6742074Y6399784D01*
X6745224Y6418224D01*
X6750303Y6437680D01*
X6758228Y6455206D01*
X6768592Y6468872D01*
X6783120Y6478524D01*
X6798513Y6482537D01*
X6821170Y6482384D01*
X6837070Y6477203D01*
X6849567Y6468008D01*
X6859930Y6454851D01*
X6868159Y6435090D01*
X6872122Y6419951D01*
X6876084Y6395669D01*
X6878828Y6365189D01*
X6878828Y6309360D01*
X6876084Y6273698D01*
X6872122Y6249416D01*
X6868159Y6234328D01*
X6860286Y6215380D01*
X6850278Y6202172D01*
X6837070Y6192215D01*
X6825132Y6187897D01*
X6796582Y6186525D01*
X6776618Y6193840D01*
X6762800Y6206490D01*
X6754418Y6220714D01*
X6747713Y6240576D01*
X6742074Y6268364D01*
X6738366Y6312154D01*
X6687802Y6312154D01*
X6689344Y6284315D01*
X6693306Y6257798D01*
X6698589Y6235293D01*
X6704126Y6219342D01*
X6714032Y6198006D01*
X6723735Y6183579D01*
X6738975Y6167932D01*
X6753199Y6158738D01*
X6767830Y6152286D01*
X6789318Y6147104D01*
X6813448Y6145428D01*
X6835749Y6148578D01*
X6850329Y6152540D01*
X6863588Y6158077D01*
X6876846Y6166561D01*
X6892036Y6180429D01*
X6903923Y6198412D01*
X6912305Y6215278D01*
X6918655Y6233922D01*
X6923786Y6255156D01*
X6929526Y6294932D01*
X6929628Y6373164D01*
X6925056Y6407607D01*
X6918553Y6435750D01*
X6912356Y6454038D01*
X6903669Y6471259D01*
X6891629Y6489293D01*
X6876846Y6502857D01*
X6863181Y6511594D01*
X6846366Y6518198D01*
X6834428Y6521297D01*
G37*
G36*
X6504279Y6523583D02*
G01*
X6473799Y6520942D01*
X6447282Y6515404D01*
X6426098Y6509257D01*
X6412839Y6504330D01*
X6412077Y6456019D01*
X6415532Y6456019D01*
X6420967Y6459778D01*
X6444640Y6471615D01*
X6465366Y6478473D01*
X6486753Y6482842D01*
X6526834Y6481572D01*
X6545681Y6474968D01*
X6560718Y6464960D01*
X6569608Y6454038D01*
X6574332Y6444742D01*
X6577838Y6431483D01*
X6577888Y6415024D01*
X6574078Y6400495D01*
X6570878Y6394348D01*
X6562140Y6383528D01*
X6544056Y6374079D01*
X6526834Y6368338D01*
X6477762Y6356756D01*
X6461861Y6351574D01*
X6445300Y6344615D01*
X6427419Y6333642D01*
X6416344Y6324600D01*
X6405219Y6309868D01*
X6396431Y6290919D01*
X6391656Y6268415D01*
X6391706Y6236614D01*
X6396278Y6214059D01*
X6409436Y6187236D01*
X6430416Y6167475D01*
X6449110Y6157671D01*
X6460540Y6153505D01*
X6473799Y6150000D01*
X6495034Y6146596D01*
X6537452Y6146444D01*
X6561328Y6150000D01*
X6588302Y6156401D01*
X6615684Y6165951D01*
X6620306Y6168390D01*
X6620306Y6218682D01*
X6617309Y6218682D01*
X6602425Y6209690D01*
X6585305Y6201156D01*
X6562648Y6192418D01*
X6536131Y6186678D01*
X6497675Y6186728D01*
X6476949Y6192113D01*
X6460540Y6200800D01*
X6449669Y6211620D01*
X6442760Y6223406D01*
X6438341Y6240576D01*
X6439662Y6267094D01*
X6445504Y6282334D01*
X6458407Y6296456D01*
X6473799Y6304534D01*
X6491020Y6310376D01*
X6524193Y6318148D01*
X6541414Y6322415D01*
X6564884Y6330188D01*
X6585153Y6340398D01*
X6601358Y6352336D01*
X6614109Y6368897D01*
X6621170Y6386423D01*
X6624574Y6402730D01*
X6623354Y6439458D01*
X6617411Y6458000D01*
X6609486Y6473698D01*
X6597446Y6489344D01*
X6579870Y6503924D01*
X6555994Y6515607D01*
X6533946Y6521094D01*
X6509613Y6523278D01*
G37*
G36*
X6324650Y6517030D02*
G01*
X6276289Y6516319D01*
X6274968Y6367830D01*
X6142380Y6367830D01*
X6141059Y6516319D01*
X6091986Y6516319D01*
X6091326Y6153759D01*
X6141720Y6153759D01*
X6141720Y6326073D01*
X6275628Y6326073D01*
X6275628Y6153759D01*
X6325311Y6153759D01*
G37*
G36*
X4334611Y6371183D02*
G01*
X4325569Y6367373D01*
X4313783Y6356502D01*
X4307890Y6342837D01*
X4308957Y6325412D01*
X4313986Y6315049D01*
X4322368Y6306718D01*
X4332732Y6301638D01*
X4352594Y6300724D01*
X4367174Y6308191D01*
X4375708Y6319570D01*
X4378706Y6330696D01*
X4377639Y6346647D01*
X4373118Y6356045D01*
X4363212Y6366256D01*
X4352594Y6371082D01*
G37*
G36*
X4006900Y6371183D02*
G01*
X3996486Y6368034D01*
X3984853Y6357823D01*
X3977792Y6343345D01*
X3978859Y6325412D01*
X3983431Y6316014D01*
X3992676Y6306515D01*
X4002582Y6301689D01*
X4021378Y6300622D01*
X4035044Y6306515D01*
X4043984Y6316421D01*
X4048658Y6328613D01*
X4047540Y6346647D01*
X4042714Y6356553D01*
X4034332Y6365697D01*
X4022496Y6371082D01*
G37*
G36*
X3676751Y6371183D02*
G01*
X3665880Y6367932D01*
X3652316Y6354521D01*
X3647643Y6340297D01*
X3649014Y6325209D01*
X3654501Y6314490D01*
X3666388Y6304026D01*
X3676751Y6300876D01*
X3692347Y6300927D01*
X3705758Y6307175D01*
X3715156Y6318097D01*
X3718458Y6329070D01*
X3718356Y6344412D01*
X3714292Y6354165D01*
X3705809Y6364884D01*
X3692347Y6371132D01*
G37*
G36*
X3345027Y6371132D02*
G01*
X3331616Y6364884D01*
X3321913Y6353556D01*
X3317494Y6340297D01*
X3318916Y6324752D01*
X3325774Y6313068D01*
X3336391Y6303975D01*
X3346653Y6300876D01*
X3360928Y6300927D01*
X3370529Y6303568D01*
X3382568Y6314186D01*
X3388360Y6326124D01*
X3388461Y6344107D01*
X3383026Y6356451D01*
X3371494Y6367932D01*
X3362248Y6370878D01*
G37*
G36*
X4664151Y6371082D02*
G01*
X4653483Y6366256D01*
X4641342Y6352743D01*
X4637989Y6340754D01*
X4639056Y6323888D01*
X4647641Y6310477D01*
X4657750Y6303467D01*
X4666792Y6300876D01*
X4682896Y6300876D01*
X4697272Y6308191D01*
X4705807Y6319520D01*
X4708550Y6329375D01*
X4708550Y6344005D01*
X4702251Y6357213D01*
X4691989Y6367068D01*
X4682693Y6371082D01*
G37*
D10*
X508000Y5032247D02*
G01*
X489457Y5041392D01*
X461771Y5069078D01*
X461771Y4875276D01*
X391668Y5022850D02*
G01*
X391668Y5032247D01*
X382270Y5050789D01*
X373126Y5059934D01*
X354584Y5069078D01*
X317754Y5069078D01*
X299212Y5059934D01*
X290068Y5050789D01*
X280670Y5032247D01*
X280670Y5013705D01*
X290068Y4995163D01*
X308610Y4967478D01*
X400812Y4875276D01*
X271526Y4875276D01*
X775622Y5032247D02*
G01*
X757080Y5041392D01*
X729394Y5069078D01*
X729394Y4875276D01*
X668434Y5032247D02*
G01*
X649892Y5041392D01*
X622206Y5069078D01*
X622206Y4875276D01*
X1126299Y5032247D02*
G01*
X1107757Y5041392D01*
X1080071Y5069078D01*
X1080071Y4875276D01*
X963739Y5069078D02*
G01*
X991425Y5059934D01*
X1009967Y5032247D01*
X1019111Y4986020D01*
X1019111Y4958334D01*
X1009967Y4912105D01*
X991425Y4884420D01*
X963739Y4875276D01*
X945197Y4875276D01*
X917511Y4884420D01*
X898969Y4912105D01*
X889825Y4958334D01*
X889825Y4986020D01*
X898969Y5032247D01*
X917511Y5059934D01*
X945197Y5069078D01*
X963739Y5069078D01*
X1240502Y5004562D02*
G01*
X1249900Y4976876D01*
X1268188Y4958334D01*
X1295874Y4949189D01*
X1305272Y4949189D01*
X1332958Y4958334D01*
X1351500Y4976876D01*
X1360644Y5004562D01*
X1360644Y5013705D01*
X1351500Y5041392D01*
X1332958Y5059934D01*
X1305272Y5069078D01*
X1295874Y5069078D01*
X1268188Y5059934D01*
X1249900Y5041392D01*
X1240502Y5004562D01*
X1240502Y4958334D01*
X1249900Y4912105D01*
X1268188Y4884420D01*
X1295874Y4875276D01*
X1314416Y4875276D01*
X1342102Y4884420D01*
X1351500Y4902962D01*
X1557909Y5069078D02*
G01*
X1585595Y5059934D01*
X1594993Y5041392D01*
X1594993Y5022850D01*
X1585595Y5004562D01*
X1567306Y4995163D01*
X1530222Y4986020D01*
X1502536Y4976876D01*
X1483995Y4958334D01*
X1474850Y4939792D01*
X1474850Y4912105D01*
X1483995Y4893563D01*
X1493393Y4884420D01*
X1521079Y4875276D01*
X1557909Y4875276D01*
X1585595Y4884420D01*
X1594993Y4893563D01*
X1604136Y4912105D01*
X1604136Y4939792D01*
X1594993Y4958334D01*
X1576450Y4976876D01*
X1548765Y4986020D01*
X1511681Y4995163D01*
X1493393Y5004562D01*
X1483995Y5022850D01*
X1483995Y5041392D01*
X1493393Y5059934D01*
X1521079Y5069078D01*
X1557909Y5069078D01*
X1718343Y5069078D02*
G01*
X1810799Y4875276D01*
X1847629Y5069078D02*
G01*
X1718343Y5069078D01*
X1971230Y5041392D02*
G01*
X1980374Y5059934D01*
X2008060Y5069078D01*
X2026602Y5069078D01*
X2054288Y5059934D01*
X2072830Y5032247D01*
X2081974Y4986020D01*
X2081974Y4939792D01*
X2072830Y4902962D01*
X2054288Y4884420D01*
X2026602Y4875276D01*
X2017204Y4875276D01*
X1989518Y4884420D01*
X1971230Y4902962D01*
X1961832Y4930647D01*
X1961832Y4939792D01*
X1971230Y4967478D01*
X1989518Y4986020D01*
X2017204Y4995163D01*
X2026602Y4995163D01*
X2054288Y4986020D01*
X2072830Y4967478D01*
X2081974Y4939792D01*
X2485643Y5069078D02*
G01*
X2578100Y4939792D01*
X2439670Y4939792D01*
X2485643Y5069078D02*
G01*
X2485643Y4875276D01*
X2214722Y5069078D02*
G01*
X2306924Y5069078D01*
X2316322Y4986020D01*
X2306924Y4995163D01*
X2279238Y5004562D01*
X2251552Y5004562D01*
X2223866Y4995163D01*
X2205324Y4976876D01*
X2196180Y4949189D01*
X2196180Y4930647D01*
X2205324Y4902962D01*
X2223866Y4884420D01*
X2251552Y4875276D01*
X2279238Y4875276D01*
X2306924Y4884420D01*
X2316322Y4893563D01*
X2325466Y4912105D01*
X2543556Y5340555D02*
G01*
X2543556Y5349699D01*
X2534158Y5368241D01*
X2525013Y5377385D01*
X2506472Y5386529D01*
X2469641Y5386529D01*
X2451100Y5377385D01*
X2441956Y5368241D01*
X2432558Y5349699D01*
X2432558Y5331157D01*
X2441956Y5312869D01*
X2460243Y5284929D01*
X2552700Y5192727D01*
X2423413Y5192727D01*
X2307081Y5386529D02*
G01*
X2334768Y5377385D01*
X2353309Y5349699D01*
X2362454Y5303471D01*
X2362454Y5275785D01*
X2353309Y5229557D01*
X2334768Y5201871D01*
X2307081Y5192727D01*
X2288540Y5192727D01*
X2260854Y5201871D01*
X2242311Y5229557D01*
X2233168Y5275785D01*
X2233168Y5303471D01*
X2242311Y5349699D01*
X2260854Y5377385D01*
X2288540Y5386529D01*
X2307081Y5386529D01*
X2162809Y5340555D02*
G01*
X2162809Y5349699D01*
X2153665Y5368241D01*
X2144522Y5377385D01*
X2125979Y5386529D01*
X2089150Y5386529D01*
X2070608Y5377385D01*
X2061209Y5368241D01*
X2052065Y5349699D01*
X2052065Y5331157D01*
X2061209Y5312869D01*
X2079752Y5284929D01*
X2172208Y5192727D01*
X2042922Y5192727D01*
X1870963Y5358843D02*
G01*
X1880361Y5377385D01*
X1908047Y5386529D01*
X1926590Y5386529D01*
X1954275Y5377385D01*
X1972563Y5349699D01*
X1981961Y5303471D01*
X1981961Y5257243D01*
X1972563Y5220413D01*
X1954275Y5201871D01*
X1926590Y5192727D01*
X1917191Y5192727D01*
X1889506Y5201871D01*
X1870963Y5220413D01*
X1861820Y5248099D01*
X1861820Y5257243D01*
X1870963Y5284929D01*
X1889506Y5303471D01*
X1917191Y5312869D01*
X1926590Y5312869D01*
X1954275Y5303471D01*
X1972563Y5284929D01*
X1981961Y5257243D01*
X1634490Y5423613D02*
G01*
X1800859Y5127957D01*
X1462786Y5358843D02*
G01*
X1471929Y5377385D01*
X1499870Y5386529D01*
X1518158Y5386529D01*
X1545843Y5377385D01*
X1564386Y5349699D01*
X1573529Y5303471D01*
X1573529Y5257243D01*
X1564386Y5220413D01*
X1545843Y5201871D01*
X1518158Y5192727D01*
X1509013Y5192727D01*
X1481327Y5201871D01*
X1462786Y5220413D01*
X1453641Y5248099D01*
X1453641Y5257243D01*
X1462786Y5284929D01*
X1481327Y5303471D01*
X1509013Y5312869D01*
X1518158Y5312869D01*
X1545843Y5303471D01*
X1564386Y5284929D01*
X1573529Y5257243D01*
X400557Y5386578D02*
G01*
X298957Y5386578D01*
X354329Y5312663D01*
X326644Y5312663D01*
X308355Y5303520D01*
X298957Y5294376D01*
X289813Y5266689D01*
X289813Y5248147D01*
X298957Y5220462D01*
X317500Y5201920D01*
X345186Y5192776D01*
X372871Y5192776D01*
X400557Y5201920D01*
X409955Y5211063D01*
X419100Y5229605D01*
X702056Y5340350D02*
G01*
X702056Y5349747D01*
X692658Y5368289D01*
X683513Y5377434D01*
X664972Y5386578D01*
X628141Y5386578D01*
X609600Y5377434D01*
X600456Y5368289D01*
X591058Y5349747D01*
X591058Y5331205D01*
X600456Y5312663D01*
X618743Y5284978D01*
X711200Y5192776D01*
X581913Y5192776D01*
X952500Y5349747D02*
G01*
X933958Y5358892D01*
X906272Y5386578D01*
X906272Y5192776D01*
X1197356Y5358892D02*
G01*
X1206500Y5377434D01*
X1234186Y5386578D01*
X1252727Y5386578D01*
X1280413Y5377434D01*
X1298956Y5349747D01*
X1308100Y5303520D01*
X1308100Y5257292D01*
X1298956Y5220462D01*
X1280413Y5201920D01*
X1252727Y5192776D01*
X1243329Y5192776D01*
X1215643Y5201920D01*
X1197356Y5220462D01*
X1187958Y5248147D01*
X1187958Y5257292D01*
X1197356Y5284978D01*
X1215643Y5303520D01*
X1243329Y5312663D01*
X1252727Y5312663D01*
X1280413Y5303520D01*
X1298956Y5284978D01*
X1308100Y5257292D01*
D11*
X3987810Y2998208D02*
G01*
X3987810Y2889242D01*
X3987810Y2998208D02*
G01*
X3951488Y2998208D01*
X3935740Y2993128D01*
X3925580Y2982714D01*
X3920246Y2972300D01*
X3915166Y2956552D01*
X3915166Y2930644D01*
X3920246Y2915150D01*
X3925580Y2904736D01*
X3935740Y2894322D01*
X3951488Y2889242D01*
X3987810Y2889242D01*
X3880876Y2977380D02*
G01*
X3870462Y2982714D01*
X3854714Y2998208D01*
X3854714Y2889242D01*
X6667510Y2998218D02*
G01*
X6667510Y2889252D01*
X6667510Y2998218D02*
G01*
X6631188Y2998218D01*
X6615440Y2993138D01*
X6605280Y2982724D01*
X6599946Y2972310D01*
X6594866Y2956562D01*
X6594866Y2930654D01*
X6599946Y2915160D01*
X6605280Y2904746D01*
X6615440Y2894332D01*
X6631188Y2889252D01*
X6667510Y2889252D01*
X6555242Y2972310D02*
G01*
X6555242Y2977390D01*
X6550162Y2987804D01*
X6544828Y2993138D01*
X6534414Y2998218D01*
X6513840Y2998218D01*
X6503426Y2993138D01*
X6498092Y2987804D01*
X6493012Y2977390D01*
X6493012Y2966976D01*
X6498092Y2956562D01*
X6508506Y2941068D01*
X6560576Y2889252D01*
X6487678Y2889252D01*
X3949735Y2744208D02*
G01*
X3949735Y2635242D01*
X3949735Y2744208D02*
G01*
X3902999Y2744208D01*
X3887505Y2739128D01*
X3882171Y2733794D01*
X3877091Y2723380D01*
X3877091Y2712966D01*
X3882171Y2702552D01*
X3887505Y2697472D01*
X3902999Y2692392D01*
X3949735Y2692392D01*
X3913413Y2692392D02*
G01*
X3877091Y2635242D01*
X3842801Y2723380D02*
G01*
X3832387Y2728714D01*
X3816639Y2744208D01*
X3816639Y2635242D01*
X6629410Y2744218D02*
G01*
X6629410Y2635252D01*
X6629410Y2744218D02*
G01*
X6582674Y2744218D01*
X6567180Y2739138D01*
X6561846Y2733804D01*
X6556766Y2723390D01*
X6556766Y2712976D01*
X6561846Y2702562D01*
X6567180Y2697482D01*
X6582674Y2692402D01*
X6629410Y2692402D01*
X6593088Y2692402D02*
G01*
X6556766Y2635252D01*
X6517142Y2718310D02*
G01*
X6517142Y2723390D01*
X6512062Y2733804D01*
X6506728Y2739138D01*
X6496314Y2744218D01*
X6475740Y2744218D01*
X6465326Y2739138D01*
X6459992Y2733804D01*
X6454912Y2723390D01*
X6454912Y2712976D01*
X6459992Y2702562D01*
X6470406Y2687068D01*
X6522476Y2635252D01*
X6449578Y2635252D01*
X6629410Y5258838D02*
G01*
X6629410Y5149872D01*
X6629410Y5258838D02*
G01*
X6582674Y5258838D01*
X6567180Y5253758D01*
X6561846Y5248424D01*
X6556766Y5238010D01*
X6556766Y5227596D01*
X6561846Y5217182D01*
X6567180Y5212102D01*
X6582674Y5207022D01*
X6629410Y5207022D01*
X6593088Y5207022D02*
G01*
X6556766Y5149872D01*
X6512062Y5258838D02*
G01*
X6454912Y5258838D01*
X6485900Y5217182D01*
X6470406Y5217182D01*
X6459992Y5212102D01*
X6454912Y5207022D01*
X6449578Y5191274D01*
X6449578Y5180860D01*
X6454912Y5165366D01*
X6465326Y5154952D01*
X6480820Y5149872D01*
X6496314Y5149872D01*
X6512062Y5154952D01*
X6517142Y5160032D01*
X6522476Y5170446D01*
D12*
X2635250Y5130800D02*
G01*
X222250Y5130800D01*
X1111250Y5445125D02*
G01*
X1111250Y5134576D01*
X1390650Y5445125D02*
G01*
X1390650Y5134576D01*
D13*
X6134100Y1943100D02*
G01*
X6134100Y1854200D01*
X5638800Y1962404D02*
G01*
X5638800Y1854200D01*
X5638800Y1962404D02*
G01*
X5638800Y1929767D01*
X5549900Y4381500D02*
G01*
X5549900Y2775224D01*
X5346700Y4089400D02*
G01*
X5346700Y2391775D01*
X1425674Y3659007D02*
G01*
X2085677Y3659007D01*
X1425674Y4167007D02*
G01*
X2085677Y4167007D01*
X3708400Y4826000D02*
G01*
X3788171Y4733528D01*
X5384800Y1130300D02*
G01*
X5384800Y1790298D01*
X5892800Y1130300D02*
G01*
X5892800Y1790298D01*
X3911600Y4686300D02*
G01*
X5245100Y4686300D01*
D12*
X2578100Y1104900D02*
G01*
X2999099Y1104900D01*
X2578100Y1104900D02*
G01*
X2344572Y1455191D01*
X2578100Y1104900D02*
G01*
X2332390Y763043D01*
D13*
X5143500Y3810000D02*
G01*
X5143500Y1854200D01*
X4046791Y4064000D02*
G01*
X4876800Y4064000D01*
X3881046Y3995346D02*
G01*
X3859336Y3973636D01*
X4054774Y4229100D02*
G01*
X5207000Y4229100D01*
X3788171Y4733528D02*
G01*
X3761143Y4760556D01*
X3875399Y4303400D02*
G01*
X3849771Y4329028D01*
X3767523Y4411276D02*
G01*
X3875399Y4303400D01*
X3804246Y3918546D02*
G01*
X3881046Y3995346D01*
X5549900Y2683875D02*
G01*
X5549900Y2775224D01*
X5346700Y2391775D02*
G01*
X5346700Y2446840D01*
X6134100Y1958555D02*
G01*
X6134100Y1926140D01*
X5394553Y2276246D02*
G01*
X5589587Y2081212D01*
X5597753Y2568346D02*
G01*
X6082167Y2083932D01*
D12*
X3613515Y2806392D02*
G01*
X4133514Y2806392D01*
X4133514Y2806392D02*
G01*
X4133514Y3086392D01*
X3613515Y3086392D02*
G01*
X4133514Y3086392D01*
X3613515Y2806392D02*
G01*
X3613515Y3086392D01*
X3709441Y2806392D02*
G01*
X3709441Y3086392D01*
X6280500Y2806402D02*
G01*
X6800499Y2806402D01*
X6800499Y2806402D02*
G01*
X6800499Y3086402D01*
X6280500Y3086402D02*
G01*
X6800499Y3086402D01*
X6280500Y2806402D02*
G01*
X6280500Y3086402D01*
X6376426Y2806402D02*
G01*
X6376426Y3086402D01*
X4305393Y2692392D02*
G01*
X4198515Y2692392D01*
X3548514Y2691988D02*
G01*
X3441636Y2691988D01*
X4198515Y2577391D02*
G01*
X4198515Y2807393D01*
X4198515Y2807393D02*
G01*
X3548514Y2807393D01*
X3548514Y2804391D02*
G01*
X3548514Y2580393D01*
X3548514Y2577391D02*
G01*
X4198515Y2577391D01*
X6972378Y2692402D02*
G01*
X6865500Y2692402D01*
X6215499Y2691998D02*
G01*
X6108621Y2691998D01*
X6865500Y2577401D02*
G01*
X6865500Y2807403D01*
X6865500Y2807403D02*
G01*
X6215499Y2807403D01*
X6215499Y2804401D02*
G01*
X6215499Y2580403D01*
X6215499Y2577401D02*
G01*
X6865500Y2577401D01*
X6108621Y5206997D02*
G01*
X6215499Y5206997D01*
X6865500Y5207401D02*
G01*
X6972378Y5207401D01*
X6215499Y5321998D02*
G01*
X6215499Y5091996D01*
X6215499Y5091996D02*
G01*
X6865500Y5091996D01*
X6865500Y5094998D02*
G01*
X6865500Y5318996D01*
X6865500Y5321998D02*
G01*
X6215499Y5321998D01*
D13*
G75*
G01*
X4876800Y4064000D02*
G02*
X5143500Y3797300I0J-266700D01*
G75*
G01*
X3902192Y4686300D02*
G02*
X3788171Y4733529I0J161249D01*
G75*
G01*
X4054775Y4229100D02*
G02*
X3875400Y4303400I0J253672D01*
G75*
G01*
X4046792Y4064000D02*
G03*
X3881046Y3995346I-1J-234399D01*
G75*
G01*
X3711222Y4450959D02*
G02*
X3767524Y4411276I-86434J-182415D01*
G75*
G01*
X3710254Y3856233D02*
G03*
X3804247Y3918547I-106740J263049D01*
G75*
G01*
X5245100Y4686300D02*
G02*
X5549900Y4381500I0J-304800D01*
G75*
G01*
X5207000Y4229100D02*
G02*
X5346700Y4089400I0J-139700D01*
G75*
G01*
X5597754Y2568346D02*
G02*
X5549900Y2683876I115529J115529D01*
G75*
G01*
X5394554Y2276246D02*
G02*
X5346700Y2391776I115529J115529D01*
G75*
G01*
X6082167Y2083933D02*
G02*
X6134100Y1958556I-125377J-125377D01*
G75*
G01*
X5589588Y2081213D02*
G02*
X5638800Y1962404I-118809J-118810D01*
D12*
X209550Y5454650D02*
G01*
X2635250Y5454650D01*
X2635250Y4806950D01*
X209550Y4806950D01*
X209550Y5454650D01*
X254000Y2794000D02*
G01*
X508000Y2794000D01*
X508000Y2540000D01*
X254000Y2540000D01*
X254000Y2794000D01*
X762000Y2794000D02*
G01*
X1016000Y2794000D01*
X1016000Y2540000D01*
X762000Y2540000D01*
X762000Y2794000D01*
X1282700Y2794000D02*
G01*
X1536700Y2794000D01*
X1536700Y2540000D01*
X1282700Y2540000D01*
X1282700Y2794000D01*
X1282700Y2286000D02*
G01*
X1536700Y2286000D01*
X1536700Y2032000D01*
X1282700Y2032000D01*
X1282700Y2286000D01*
X762000Y2286000D02*
G01*
X1016000Y2286000D01*
X1016000Y2032000D01*
X762000Y2032000D01*
X762000Y2286000D01*
X254000Y2286000D02*
G01*
X508000Y2286000D01*
X508000Y2032000D01*
X254000Y2032000D01*
X254000Y2286000D01*
X1778000Y2286000D02*
G01*
X2032000Y2286000D01*
X2032000Y2032000D01*
X1778000Y2032000D01*
X1778000Y2286000D01*
X2298700Y2286000D02*
G01*
X2552700Y2286000D01*
X2552700Y2032000D01*
X2298700Y2032000D01*
X2298700Y2286000D01*
X2298700Y2794000D02*
G01*
X2552700Y2794000D01*
X2552700Y2540000D01*
X2298700Y2540000D01*
X2298700Y2794000D01*
X1778000Y2794000D02*
G01*
X2032000Y2794000D01*
X2032000Y2540000D01*
X1778000Y2540000D01*
X1778000Y2794000D01*
G36*
X2458900Y2786199D02*
G01*
X2544899Y2786199D01*
X2544899Y2700200D01*
X2458900Y2700200D01*
G37*
M02*
